<?xml version="1.0" encoding="UTF-8"?>
<svg version="1.1" xmlns="http://www.w3.org/2000/svg" width="64" height="64">
<path d="M0 0 C0.495 2.97 0.495 2.97 1 6 C1.66 6 2.32 6 3 6 C3.33 4.02 3.66 2.04 4 0 C5.98 0.66 7.96 1.32 10 2 C10 5.63 10 9.26 10 13 C8.68 13.33 7.36 13.66 6 14 C6 21.26 6 28.52 6 36 C7.32 36.33 8.64 36.66 10 37 C10 40.63 10 44.26 10 48 C8.02 48.66 6.04 49.32 4 50 C3.505 47.03 3.505 47.03 3 44 C2.34 44 1.68 44 1 44 C0.67 45.98 0.34 47.96 0 50 C-2.86724686 49.42655063 -3.8614515 49.1385485 -6 47 C-8.08333333 47.16666667 -8.08333333 47.16666667 -10 48 C-10.495 48.99 -10.495 48.99 -11 50 C-12.98 50 -14.96 50 -17 50 C-17.33 49.34 -17.66 48.68 -18 48 C-19.32303717 47.6278958 -20.65737935 47.29369827 -22 47 C-22.495 46.505 -22.495 46.505 -23 46 C-24.34747084 45.76924918 -25.70377565 45.58846937 -27.0625 45.4375 C-28.361875 45.293125 -29.66125 45.14875 -31 45 C-31.165 45.639375 -31.33 46.27875 -31.5 46.9375 C-33 49 -33 49 -36.8125 49.9375 C-40.69076146 50.24832606 -42.95952536 49.56540048 -46 47 C-46 46.34 -46 45.68 -46 45 C-48.64 45 -51.28 45 -54 45 C-54 42.36 -54 39.72 -54 37 C-53.34 37 -52.68 37 -52 37 C-52.103125 35.9275 -52.20625 34.855 -52.3125 33.75 C-52 30 -52 30 -49.75 27.6875 C-45.1862922 24.88704294 -42.55352663 23.84703261 -37.125 23.8125 C-32.81276211 23.59391608 -32.81276211 23.59391608 -29.1640625 21.55859375 C-28.21479818 20.34447944 -27.29541736 19.10644842 -26.40625 17.84765625 C-21.64814749 11.59603823 -14.40881174 10.01719341 -7 9 C-7.0825 8.071875 -7.165 7.14375 -7.25 6.1875 C-7 3 -7 3 -5.1875 1.125 C-3 0 -3 0 0 0 Z M-5 4 C-5 5.98 -5 7.96 -5 10 C-2.525 10.99 -2.525 10.99 0 12 C0 20.58 0 29.16 0 38 C-1.65 38.66 -3.3 39.32 -5 40 C-6.33333333 43 -6.33333333 43 -5 46 C-4.01 46.33 -3.02 46.66 -2 47 C-2 45.35 -2 43.7 -2 42 C0.64 42 3.28 42 6 42 C6 43.65 6 45.3 6 47 C6.99 46.505 6.99 46.505 8 46 C8 43.69 8 41.38 8 39 C6.68 38.67 5.36 38.34 4 38 C4 29.42 4 20.84 4 12 C5.32 11.67 6.64 11.34 8 11 C8 8.69 8 6.38 8 4 C7.34 3.67 6.68 3.34 6 3 C6 4.65 6 6.3 6 8 C3.36 8 0.72 8 -2 8 C-2 6.35 -2 4.7 -2 3 C-3.2236068 2.9254644 -3.2236068 2.9254644 -5 4 Z M-20 19 C-19.01685457 21.61422122 -19.01685457 21.61422122 -17 24 C-13.57639262 24.60624398 -13.57639262 24.60624398 -9.8125 24.3125 C-8.54019531 24.26738281 -7.26789062 24.22226562 -5.95703125 24.17578125 C-4.98121094 24.11777344 -4.00539062 24.05976563 -3 24 C-3 24.66 -3 25.32 -3 26 C-10.92 26 -18.84 26 -27 26 C-27.33 25.34 -27.66 24.68 -28 24 C-28.33 24.33 -28.66 24.66 -29 25 C-30.97509873 25.2094361 -32.95571682 25.36803822 -34.9375 25.5 C-39.12167415 25.67735084 -39.12167415 25.67735084 -43 27 C-43.0825 27.639375 -43.165 28.27875 -43.25 28.9375 C-43.4975 29.618125 -43.745 30.29875 -44 31 C-47.0625 32.25 -47.0625 32.25 -50 33 C-50 34.32 -50 35.64 -50 37 C-48.68 37 -47.36 37 -46 37 C-45.401875 36.34 -44.80375 35.68 -44.1875 35 C-42 33 -42 33 -38.5625 32.5 C-35 33 -35 33 -32.5 35.0625 C-30.02269796 37.42456728 -30.02269796 37.42456728 -26.1875 36.75 C-25.135625 36.5025 -24.08375 36.255 -23 36 C-22.7525 35.195625 -22.505 34.39125 -22.25 33.5625 C-21 31 -21 31 -18.875 30.1875 C-18.25625 30.125625 -17.6375 30.06375 -17 30 C-17 29.34 -17 28.68 -17 28 C-15.02 28 -13.04 28 -11 28 C-11 28.66 -11 29.32 -11 30 C-10.38125 30.061875 -9.7625 30.12375 -9.125 30.1875 C-7 31 -7 31 -5.75 33.5625 C-5.5025 34.366875 -5.255 35.17125 -5 36 C-4.01 36 -3.02 36 -2 36 C-2 29.07 -2 22.14 -2 15 C-9.50765708 14.6292515 -13.84291859 14.621631 -20 19 Z M-24 22 C-24.33 22.66 -24.66 23.32 -25 24 C-23.35 24 -21.7 24 -20 24 C-20 23.34 -20 22.68 -20 22 C-21.32 22 -22.64 22 -24 22 Z M-15 30 C-15.33 30.66 -15.66 31.32 -16 32 C-18.0625 32.625 -18.0625 32.625 -20 33 C-20.12375 33.639375 -20.2475 34.27875 -20.375 34.9375 C-20.58125 35.618125 -20.7875 36.29875 -21 37 C-21.99 37.495 -21.99 37.495 -23 38 C-23 38.66 -23 39.32 -23 40 C-22.01 40.495 -22.01 40.495 -21 41 C-20.375 43.0625 -20.375 43.0625 -20 45 C-18.35 45 -16.7 45 -15 45 C-15 45.99 -15 46.98 -15 48 C-14.34 48 -13.68 48 -13 48 C-13 47.01 -13 46.02 -13 45 C-11.35 45 -9.7 45 -8 45 C-6.9187609 38.93949386 -6.9187609 38.93949386 -8 33 C-8.639375 32.87625 -9.27875 32.7525 -9.9375 32.625 C-10.9584375 32.315625 -10.9584375 32.315625 -12 32 C-12.33 31.34 -12.66 30.68 -13 30 C-13.66 30 -14.32 30 -15 30 Z M-42.875 35.5 C-45.36560196 37.90616599 -45.36560196 37.90616599 -45.125 41.5625 C-44.28614026 45.07614042 -44.28614026 45.07614042 -41.75 47.0625 C-39.03151821 48.26919473 -39.03151821 48.26919473 -36.3125 47.3125 C-33.90339298 46.08067898 -33.90339298 46.08067898 -32 44 C-31.55537992 39.87169954 -31.55537992 39.87169954 -33.1875 36.1875 C-36.86037239 33.78113533 -38.92752363 33.44044711 -42.875 35.5 Z M-52 39 C-52 40.32 -52 41.64 -52 43 C-50.35 43 -48.7 43 -47 43 C-47 41.68 -47 40.36 -47 39 C-48.65 39 -50.3 39 -52 39 Z M-29 39 C-29 40.32 -29 41.64 -29 43 C-26.69 43 -24.38 43 -22 43 C-22.99 42.67 -23.98 42.34 -25 42 C-25 41.01 -25 40.02 -25 39 C-26.32 39 -27.64 39 -29 39 Z " fill="#EEAE1C" transform="translate(54,7)"/>
<path d="M0 0 C0.125 3.375 0.125 3.375 0 7 C-2 9 -2 9 -5 9.25 C-8 9 -8 9 -10 7 C-10.125 3.375 -10.125 3.375 -10 0 C-6.22996568 -2.61002376 -4.07631429 -1.66758312 0 0 Z M-7 1 C-3 2 -3 2 -3 2 Z M-8 4 C-7.67 4.99 -7.34 5.98 -7 7 C-5.35 6.67 -3.7 6.34 -2 6 C-2 5.34 -2 4.68 -2 4 C-3.98 4 -5.96 4 -8 4 Z " fill="#EEAE1B" transform="translate(45,42)"/>
<path d="M0 0 C0.99 0.103125 1.98 0.20625 3 0.3125 C5 3.3125 5 3.3125 4.75 5.875 C4 8.3125 4 8.3125 2 10.3125 C-0.5 10.5625 -0.5 10.5625 -3 10.3125 C-5 8.3125 -5 8.3125 -5.25 5.3125 C-4.90578549 1.18192588 -4.11441953 0.42858537 0 0 Z M-2 2.3125 C-2.33 3.6325 -2.66 4.9525 -3 6.3125 C-1.515 7.3025 -1.515 7.3025 0 8.3125 C0.66 7.9825 1.32 7.6525 2 7.3125 C1.67 5.6625 1.34 4.0125 1 2.3125 C0.01 2.3125 -0.98 2.3125 -2 2.3125 Z " fill="#EEB21A" transform="translate(16,42.6875)"/>
</svg>
