<?xml version="1.0" encoding="UTF-8"?>
<svg version="1.1" xmlns="http://www.w3.org/2000/svg" width="64" height="64">
<path d="M0 0 C1.6683972 0.32456074 3.3347929 0.65945016 5 1 C6.61171355 1.03152133 8.22481198 1.01859072 9.8359375 0.96484375 C24.35837975 0.80307742 24.35837975 0.80307742 28.8984375 4.11328125 C31.79804301 8.24246632 33.1792637 12.03989802 34 17 C32.35 17.33 30.7 17.66 29 18 C29 26.58 29 35.16 29 44 C30.65 44 32.3 44 34 44 C34 44.99 34 45.98 34 47 C12.88 47 -8.24 47 -30 47 C-29 42 -29 42 -27.48046875 39.80078125 C-25.3093341 35.69338403 -25.43209044 31.76952218 -25.3125 27.1875 C-25.27833984 26.30384766 -25.24417969 25.42019531 -25.20898438 24.50976562 C-25.12689567 22.34027833 -25.06176121 20.1701611 -25 18 C-26.65 17.67 -28.3 17.34 -30 17 C-28.96618827 10.75218127 -27.26875485 5.82090666 -22 2 C-15.7701636 0.59835093 -9.27922208 0.84017284 -2.93017578 1.04663086 C-0.99190626 1.22184713 -0.99190626 1.22184713 0 0 Z M-20 4 C-20 4.33 -20 4.66 -20 5 C-18.02 5 -16.04 5 -14 5 C-14 5.66 -14 6.32 -14 7 C-16.64 7 -19.28 7 -22 7 C-22 7.33 -22 7.66 -22 8 C-16.72 8 -11.44 8 -6 8 C-6 7.67 -6 7.34 -6 7 C-8.31 7 -10.62 7 -13 7 C-13 6.34 -13 5.68 -13 5 C-9.7 5 -6.4 5 -3 5 C-3 4.67 -3 4.34 -3 4 C-8.61 4 -14.22 4 -20 4 Z M7 4 C7 4.33 7 4.66 7 5 C12.61 5 18.22 5 24 5 C24 4.67 24 4.34 24 4 C18.39 4 12.78 4 7 4 Z M10 7 C10 7.33 10 7.66 10 8 C15.28 8 20.56 8 26 8 C26 7.67 26 7.34 26 7 C20.72 7 15.44 7 10 7 Z M-3.09375 12.65234375 C-8.25359972 18.60413243 -7.93555518 23.99472875 -7.5 31.5625 C-7.46390625 32.76197266 -7.4278125 33.96144531 -7.390625 35.19726562 C-7.29699517 38.13490168 -7.16601329 41.06571509 -7 44 C-6.01 44 -5.02 44 -4 44 C-4 38.72 -4 33.44 -4 28 C-0.04 28 3.92 28 8 28 C8 33.28 8 38.56 8 44 C8.99 44 9.98 44 11 44 C11 40.04 11 36.08 11 32 C11.99 32 12.98 32 14 32 C14 35.96 14 39.92 14 44 C17.96 44 21.92 44 26 44 C26 35.42 26 26.84 26 18 C25.34 18 24.68 18 24 18 C24 17.01 24 16.02 24 15 C25.98 15 27.96 15 30 15 C30 14.67 30 14.34 30 14 C25.38 14 20.76 14 16 14 C16 14.33 16 14.66 16 15 C17.98 15 19.96 15 22 15 C20.37633534 18.24732932 17.24612161 18.70155136 14 20 C14 23.3 14 26.6 14 30 C13.01 30 12.02 30 11 30 C11.0928125 29.23816406 11.185625 28.47632812 11.28125 27.69140625 C11.61536749 22.9123328 11.84270753 19.37950068 9.2890625 15.19921875 C7.29209346 12.93911119 5.36087053 10.87731874 3 9 C-0.02387895 9 -0.98687386 10.55092953 -3.09375 12.65234375 Z M-26 14 C-26 14.33 -26 14.66 -26 15 C-21.38 15 -16.76 15 -12 15 C-12 14.67 -12 14.34 -12 14 C-16.62 14 -21.24 14 -26 14 Z M-22 18 C-22 23.61 -22 29.22 -22 35 C-16 37.66666667 -16 37.66666667 -10 35 C-10 30.05 -10 25.1 -10 20 C-14.4472136 17.40371521 -14.4472136 17.40371521 -22 18 Z M-1 31 C-1 32.32 -1 33.64 -1 35 C-0.34 35 0.32 35 1 35 C0.505 36.11375 0.505 36.11375 0 37.25 C-1.22782871 40.13883312 -1.22782871 40.13883312 -1 44 C0.98 44 2.96 44 5 44 C5 39.71 5 35.42 5 31 C3.02 31 1.04 31 -1 31 Z M-22 38 C-22.99 39.485 -22.99 39.485 -24 41 C-23.01 41 -22.02 41 -21 41 C-20.67 40.01 -20.34 39.02 -20 38 C-20.66 38 -21.32 38 -22 38 Z M-14 38 C-14 38.66 -14 39.32 -14 40 C-15.32 40.33 -16.64 40.66 -18 41 C-15.36 41 -12.72 41 -10 41 C-10.33 39.68 -10.66 38.36 -11 37 C-12.2236068 36.9254644 -12.2236068 36.9254644 -14 38 Z " fill="#EEAE1C" transform="translate(30,0)"/>
<path d="M0 0 C2.33294775 -0.04241723 4.66702567 -0.04092937 7 0 C8 1 8 1 8.09765625 3.72265625 C8.08605469 4.82480469 8.07445312 5.92695313 8.0625 7.0625 C8.05347656 8.16722656 8.04445313 9.27195312 8.03515625 10.41015625 C8.02355469 11.26480469 8.01195312 12.11945312 8 13 C5.36 13 2.72 13 0 13 C0 8.71 0 4.42 0 0 Z M3 3 C3 5.64 3 8.28 3 11 C3.66 11 4.32 11 5 11 C5 8.36 5 5.72 5 3 C4.34 3 3.68 3 3 3 Z " fill="#EEAE1C" transform="translate(46,21)"/>
<path d="M0 0 C1.134375 0.020625 2.26875 0.04125 3.4375 0.0625 C3.4375 4.3525 3.4375 8.6425 3.4375 13.0625 C0.7975 13.0625 -1.8425 13.0625 -4.5625 13.0625 C-4.58936553 11.08340602 -4.60883375 9.10421029 -4.625 7.125 C-4.63660156 6.02285156 -4.64820313 4.92070312 -4.66015625 3.78515625 C-4.51237367 -0.33502211 -4.25789233 0.07469987 0 0 Z M-1.5625 3.0625 C-1.5625 5.7025 -1.5625 8.3425 -1.5625 11.0625 C-0.9025 11.0625 -0.2425 11.0625 0.4375 11.0625 C0.4375 8.4225 0.4375 5.7825 0.4375 3.0625 C-0.2225 3.0625 -0.8825 3.0625 -1.5625 3.0625 Z " fill="#EEAE1C" transform="translate(14.5625,20.9375)"/>
<path d="M0 0 C4.34482759 1.34482759 4.34482759 1.34482759 6 3 C6.125 6 6.125 6 6 9 C5 10 5 10 3.1875 10.1328125 C2.465625 10.13023438 1.74375 10.12765625 1 10.125 C0.278125 10.12757812 -0.44375 10.13015625 -1.1875 10.1328125 C-3 10 -3 10 -4 9 C-3.75 5.5625 -3.75 5.5625 -3 2 C-2.01 1.34 -1.02 0.68 0 0 Z M0 3 C-0.33 4.32 -0.66 5.64 -1 7 C0.32 7 1.64 7 3 7 C2.67 5.68 2.34 4.36 2 3 C1.34 3 0.68 3 0 3 Z " fill="#EEAF1C" transform="translate(31,13)"/>
</svg>
