<?xml version="1.0" encoding="UTF-8"?>
<svg version="1.1" xmlns="http://www.w3.org/2000/svg" width="64" height="64">
<path d="M0 0 C0.71671875 0.65935547 1.4334375 1.31871094 2.171875 1.99804688 C5.72032339 4.50989743 8.55865532 4.57957838 12.75 4.53125 C13.48573242 4.5350769 14.22146484 4.53890381 14.97949219 4.54284668 C16.52931086 4.54555903 18.07917584 4.53824519 19.62890625 4.52148438 C21.99323143 4.50006133 24.35451866 4.52130511 26.71875 4.546875 C28.22917333 4.5442316 29.73959479 4.53910636 31.25 4.53125 C32.3033252 4.54339539 32.3033252 4.54339539 33.37792969 4.55578613 C38.23544457 4.46357348 40.47245807 3.24521168 44 0 C47.51074441 -0.70214888 48.72264725 -0.16641165 51.8125 1.6875 C54 4 54 4 54.75 6.375 C53.85494412 9.50769559 53.08551265 9.79811875 50.50512695 11.62597656 C47.69936361 13.96453688 46.50684816 15.380235 46.14526367 19.04589844 C46.11824496 20.56683615 46.1275359 22.08873477 46.16796875 23.609375 C46.16042068 24.41739563 46.15287262 25.22541626 46.14509583 26.05792236 C46.12665793 28.62310088 46.15497378 31.18500649 46.1875 33.75 C46.19350535 36.32845735 46.1897566 38.9064962 46.17634583 41.48492432 C46.17084444 43.08531597 46.17816018 44.68581306 46.19950867 46.28607178 C46.2067068 48.19186159 46.11202838 50.09749212 46 52 C43.5937378 54.4062622 43.04892823 54.25201459 39.765625 54.25878906 C38.89131836 54.26509338 38.01701172 54.27139771 37.11621094 54.27789307 C35.69743652 54.27182037 35.69743652 54.27182037 34.25 54.265625 C33.28094727 54.26753845 32.31189453 54.2694519 31.31347656 54.27142334 C29.26236715 54.27278579 27.21124914 54.26908518 25.16015625 54.26074219 C22.01282461 54.25004359 18.8660638 54.26063554 15.71875 54.2734375 C13.7291654 54.27211592 11.73958116 54.26955355 9.75 54.265625 C8.33122559 54.27169769 8.33122559 54.27169769 6.88378906 54.27789307 C6.00948242 54.27158875 5.13517578 54.26528442 4.234375 54.25878906 C3.07760254 54.25640228 3.07760254 54.25640228 1.89746094 54.25396729 C0 54 0 54 -2 52 C-2.16039467 49.27611786 -2.20428878 46.64438375 -2.16796875 43.921875 C-2.17364874 42.26952549 -2.18085908 40.61718067 -2.18945312 38.96484375 C-2.19362112 36.3596006 -2.18757522 33.75593177 -2.15454102 31.15087891 C-2.12753209 28.63594123 -2.14447592 26.12428275 -2.16796875 23.609375 C-2.14743942 22.83728699 -2.1269101 22.06519897 -2.10575867 21.26971436 C-2.16604668 17.87598128 -2.26981325 15.81674913 -4.58755493 13.22424316 C-6.46680326 11.61544076 -6.46680326 11.61544076 -8.42475891 10.26617432 C-10 9 -10 9 -10.75 6.375 C-9.16854899 1.36707179 -5.08748749 -1.0174975 0 0 Z M-4 3 C-5.54166642 4.37485532 -5.54166642 4.37485532 -7 6 C-7 6.66 -7 7.32 -7 8 C-3.94441577 11.02517909 -3.94441577 11.02517909 0 12 C2.20896722 9.31450092 2.20896722 9.31450092 1.9375 6.9375 C1.11544473 4.72953272 1.11544473 4.72953272 -1.5625 3.75 C-2.366875 3.5025 -3.17125 3.255 -4 3 Z M46 3 C43.80961577 4.37168238 43.80961577 4.37168238 42 6 C42.50603992 8.16874252 42.99983813 9.99967627 44 12 C46.49361571 10.79618552 48.68143083 9.54571278 51 8 C50.20882096 6.00016466 50.20882096 6.00016466 49 4 C48.01 3.67 47.02 3.34 46 3 Z M5 8 C4.34 9.65 3.68 11.3 3 13 C15.54 13 28.08 13 41 13 C40.34 11.35 39.68 9.7 39 8 C27.78 8 16.56 8 5 8 Z M1 16 C0.9753481 20.82380802 0.95716307 25.64757967 0.94506836 30.47143555 C0.94002826 32.11369464 0.93319622 33.75594923 0.92456055 35.39819336 C0.91248074 37.75375479 0.90676861 40.10925709 0.90234375 42.46484375 C0.89718246 43.20339096 0.89202118 43.94193817 0.88670349 44.7028656 C0.8865075 46.46898088 0.93805281 48.23497146 1 50 C2.89623202 51.89623202 5.66370359 51.12897626 8.1862793 51.13894653 C9.05293213 51.1369223 9.91958496 51.13489807 10.8125 51.1328125 C11.69655518 51.13376923 12.58061035 51.13472595 13.49145508 51.13571167 C15.36442129 51.13639351 17.23738986 51.13453893 19.11035156 51.13037109 C21.98768388 51.12502289 24.86486008 51.13031593 27.7421875 51.13671875 C29.55729201 51.13605797 31.37239643 51.13477681 33.1875 51.1328125 C34.48747925 51.13584885 34.48747925 51.13584885 35.8137207 51.13894653 C39.72003219 51.51260414 39.72003219 51.51260414 43 50 C43.08847743 47.47905924 43.11527301 44.98569107 43.09765625 42.46484375 C43.0962413 41.71159317 43.09482635 40.95834259 43.09336853 40.18226624 C43.08775376 37.7673044 43.07519883 35.35243399 43.0625 32.9375 C43.0574869 31.30403779 43.05292366 29.67057414 43.04882812 28.03710938 C43.03777954 24.02470415 43.02050506 20.01236759 43 16 C38.38 16 33.76 16 29 16 C28.67 20.95 28.34 25.9 28 31 C25.69 30.67 23.38 30.34 21 30 C19.35 30.33 17.7 30.66 16 31 C15.67 26.05 15.34 21.1 15 16 C10.38 16 5.76 16 1 16 Z M18 16 C18 20.29 18 24.58 18 29 C19.98 28.67 21.96 28.34 24 28 C24.66 28.33 25.32 28.66 26 29 C26 24.71 26 20.42 26 16 C23.36 16 20.72 16 18 16 Z " fill="#EEAE1C" transform="translate(10,5)"/>
<path d="M0 0 C4.62 0 9.24 0 14 0 C14 0.99 14 1.98 14 3 C9.38 3 4.76 3 0 3 C0 2.01 0 1.02 0 0 Z " fill="#EDAE1C" transform="translate(12,51)"/>
<path d="M0 0 C4.62 0 9.24 0 14 0 C14 0.99 14 1.98 14 3 C9.38 3 4.76 3 0 3 C0 2.01 0 1.02 0 0 Z " fill="#EDAD1D" transform="translate(12,47)"/>
</svg>
