<?xml version="1.0" encoding="UTF-8"?>
<svg version="1.1" xmlns="http://www.w3.org/2000/svg" width="64" height="64">
<path d="M0 0 C0.99 0.66 1.98 1.32 3 2 C3.55171875 1.67773438 4.1034375 1.35546875 4.671875 1.0234375 C9.51574809 -1.10591611 15.28530973 -0.763221 20.3203125 0.65234375 C25.32167561 2.86777646 28.51487783 6.13641326 31 11 C32.80571645 16.85420174 32.52211755 22.0013811 30.3125 27.625 C28.92321951 31.31758727 28.92321951 31.31758727 30.3125 35.125 C31.1478125 36.548125 31.1478125 36.548125 32 38 C32.3125 41.75 32.3125 41.75 32 45 C31.34 45.66 30.68 46.32 30 47 C29.69167272 50.02160733 29.62110625 53.0190687 29.5390625 56.0546875 C28.83688877 59.89120193 28.22562242 60.76948815 25 63 C21.26154639 63.59100775 17.55472733 63.51197477 13.77734375 63.4609375 C12.68031631 63.46002106 11.58328888 63.45910461 10.45301819 63.4581604 C8.13554554 63.45212169 5.8180808 63.43636776 3.50073242 63.41162109 C-0.05253752 63.37510239 -3.60476509 63.37060182 -7.15820312 63.37109375 C-9.40886321 63.36126314 -11.65951621 63.34960638 -13.91015625 63.3359375 C-15.50864159 63.33259903 -15.50864159 63.33259903 -17.13941956 63.32919312 C-18.12731979 63.31643341 -19.11522003 63.30367371 -20.13305664 63.29052734 C-21.00257462 63.28290375 -21.87209259 63.27528015 -22.76795959 63.26742554 C-25 63 -25 63 -28 61 C-29.27665361 57.17003917 -29.37060894 53.50918011 -29.62109375 49.49609375 C-29.77321113 46.83147214 -29.77321113 46.83147214 -32 45 C-32.50015563 39.79838143 -31.88417292 36.3759865 -29 32 C-27.36504293 30.94895617 -25.70116376 29.94011682 -24 29 C-23.67 28.01 -23.34 27.02 -23 26 C-23.78375 25.7525 -24.5675 25.505 -25.375 25.25 C-28 24 -28 24 -29.375 22.25 C-30.23310088 19.16083683 -29.84991477 17.07276879 -29 14 C-26.86103849 11.38862981 -24.65145383 10.22413001 -21.5625 8.9375 C-15.89049535 6.54777215 -12.88714017 4.89027312 -9 0 C-5.46627283 -1.17790906 -3.59454905 -0.82375082 0 0 Z M-6 2 C-6.99 2.99 -7.98 3.98 -9 5 C-4.545 5.99 -4.545 5.99 0 7 C-1.4894911 3.00378756 -1.4894911 3.00378756 -3.9375 2.0625 C-4.618125 2.041875 -5.29875 2.02125 -6 2 Z M3 6 C3.57452746 9.93075644 3.57452746 9.93075644 6 13 C7.16956591 11.52312468 8.33558146 10.04343707 9.5 8.5625 C10.1496875 7.73878906 10.799375 6.91507812 11.46875 6.06640625 C13.0992288 4.29474471 13.0992288 4.29474471 13 3 C8.72656908 2.63370592 6.51187196 3.59185923 3 6 Z M15.28125 5.35546875 C9.53586601 11.26464658 6.81467143 15.32408005 5.8203125 23.59765625 C6.04211089 26.56300435 7.05087689 27.81354843 9 30 C9.18175781 29.33613281 9.36351562 28.67226563 9.55078125 27.98828125 C10.90696267 23.22425934 12.26039451 19.17463694 15 15 C15 14.34 15 13.68 15 13 C15.99 13 16.98 13 18 13 C18.33 12.01 18.66 11.02 19 10 C20.29355827 8.62804426 21.62298702 7.28817344 23 6 C19.13563387 3.4110634 19.13563387 3.4110634 15.28125 5.35546875 Z M-20 14 C-21.1577506 17.47325181 -21.06866652 20.36067448 -21 24 C-19.2984375 24.6496875 -19.2984375 24.6496875 -17.5625 25.3125 C-16.386875 25.869375 -15.21125 26.42625 -14 27 C-13.67 27.99 -13.34 28.98 -13 30 C-11.3973218 30.10824843 -9.79254252 30.18570645 -8.1875 30.25 C-6.84751953 30.31960937 -6.84751953 30.31960937 -5.48046875 30.390625 C-2.85185506 30.24897191 -2.85185506 30.24897191 -1.3125 28.0625 C-0.6628125 27.0415625 -0.6628125 27.0415625 0 26 C2.1875 24.75 2.1875 24.75 4 24 C4.39496959 16.98434378 4.39496959 16.98434378 1 11 C-2.62591476 7.907308 -6.07491089 7.36826655 -10.7109375 7.5078125 C-14.72326905 8.37053225 -17.44515635 10.87487875 -20 14 Z M18 13 C14.78567421 18.40146487 12 23.65108513 12 30 C16.29 30 20.58 30 25 30 C28.58265003 24.62602496 29.71869985 21.46829861 29 15 C27.6351132 11.59758176 27.6351132 11.59758176 26 9 C22.80989225 9 20.23568525 10.97788631 18 13 Z M-25 14 C-27.26802406 16.69990757 -27.26802406 16.69990757 -26.75 19.125 C-26.16263073 21.1955029 -26.16263073 21.1955029 -24 22 C-23.67 19.36 -23.34 16.72 -23 14 C-23.66 14 -24.32 14 -25 14 Z M-20 28 C-21.42944945 30.35438733 -22.08661261 31.48032433 -21.625 34.25 C-21.41875 34.8275 -21.2125 35.405 -21 36 C-18.95163118 35.43637698 -18.95163118 35.43637698 -17 34 C-16.18415432 30.94091587 -16.18415432 30.94091587 -16 28 C-17.32 28 -18.64 28 -20 28 Z M2 28 C0.15574011 30.26816301 0.15574011 30.26816301 -1 33 C-0.67 33.99 -0.34 34.98 0 36 C0.99 36 1.98 36 3 36 C4.76462683 32.91190305 5 31.76687864 5 28 C4.01 28 3.02 28 2 28 Z M-13 32 C-14.73538192 34.39224959 -14.73538192 34.39224959 -16 37 C-18.77745248 37.73687515 -21.14135305 38 -24 38 C-24.33 36.35 -24.66 34.7 -25 33 C-28.44216672 35.6598561 -28.99504674 38.90288286 -30 43 C-28.50256881 44.49743119 -27.01175761 44.33202693 -24.9375 44.5625 C-23.638125 44.706875 -22.33875 44.85125 -21 45 C-21 45.33 -21 45.66 -21 46 C-22.65 46.33 -24.3 46.66 -26 47 C-26.05391993 48.79133978 -26.09275571 50.58313899 -26.125 52.375 C-26.14820313 53.37273438 -26.17140625 54.37046875 -26.1953125 55.3984375 C-26.27216848 58.16262173 -26.27216848 58.16262173 -24 60 C-21.60759442 60.29435133 -21.60759442 60.29435133 -18.84375 60.23046875 C-17.82152344 60.22853516 -16.79929687 60.22660156 -15.74609375 60.22460938 C-14.13927734 60.20624023 -14.13927734 60.20624023 -12.5 60.1875 C-11.42878906 60.18685547 -10.35757812 60.18621094 -9.25390625 60.18554688 C-3.95883517 60.39415024 -3.95883517 60.39415024 1 59 C1 53.06 1 47.12 1 41 C-0.65 42.65 -2.3 44.3 -4 46 C-6.7957186 46.52437831 -9.02456675 46.78848909 -11.8125 46.8125 C-12.50537109 46.83763672 -13.19824219 46.86277344 -13.91210938 46.88867188 C-15.60747122 46.94713263 -17.30379287 46.97653047 -19 47 C-19 46.01 -19 45.02 -19 44 C-17.53626953 44.05220703 -17.53626953 44.05220703 -16.04296875 44.10546875 C-14.13451172 44.14607422 -14.13451172 44.14607422 -12.1875 44.1875 C-10.29064453 44.23970703 -10.29064453 44.23970703 -8.35546875 44.29296875 C-5.06495607 44.28475944 -5.06495607 44.28475944 -3.03515625 42.640625 C-1.74909446 40.97624945 -1.74909446 40.97624945 -2.25 38.5625 C-2.4975 37.716875 -2.745 36.87125 -3 36 C-3.33730009 34.66766463 -3.67133535 33.33449183 -4 32 C-7.04929424 31.71233073 -9.96297821 31.54281392 -13 32 Z M8 32 C5.68462405 34.81708195 5.68462405 34.81708195 6.1875 38 C7.03825369 41.14124438 7.48772124 42.06439131 10 44 C12.12173585 44.41121443 12.12173585 44.41121443 14.44921875 44.29296875 C15.72055664 44.2784668 15.72055664 44.2784668 17.01757812 44.26367188 C17.89865234 44.23853516 18.77972656 44.21339844 19.6875 44.1875 C20.58017578 44.17396484 21.47285156 44.16042969 22.39257812 44.14648438 C24.59566166 44.11114079 26.79752582 44.06180493 29 44 C30.28466308 42.01928018 30.28466308 42.01928018 29.29296875 39.87109375 C28.92816406 39.06800781 28.56335938 38.26492187 28.1875 37.4375 C27.65189453 36.22900391 27.65189453 36.22900391 27.10546875 34.99609375 C26.15959053 32.84405307 26.15959053 32.84405307 24 32 C21.31918979 31.84978219 18.68164559 31.76875277 16 31.75 C15.26265625 31.729375 14.5253125 31.70875 13.765625 31.6875 C11.3737071 31.63528383 11.3737071 31.63528383 8 32 Z M4 41 C4 47.27 4 53.54 4 60 C7.29188269 60.05376941 10.58289426 60.09356106 13.875 60.125 C15.28072266 60.15013672 15.28072266 60.15013672 16.71484375 60.17578125 C17.61074219 60.18222656 18.50664063 60.18867187 19.4296875 60.1953125 C20.67081299 60.21102295 20.67081299 60.21102295 21.93701172 60.22705078 C24.22398157 60.19302257 24.22398157 60.19302257 26 58 C26.24315656 55.33050591 26.24315656 55.33050591 26.125 52.375 C26.10695313 51.37210938 26.08890625 50.36921875 26.0703125 49.3359375 C26.04710938 48.56507812 26.02390625 47.79421875 26 47 C24.21142578 46.92652344 24.21142578 46.92652344 22.38671875 46.8515625 C20.82028932 46.77652396 19.25388421 46.7009766 17.6875 46.625 C16.90181641 46.5940625 16.11613281 46.563125 15.30664062 46.53125 C14.54931641 46.49257813 13.79199219 46.45390625 13.01171875 46.4140625 C11.96697388 46.36693115 11.96697388 46.36693115 10.90112305 46.31884766 C9 46 9 46 6 44 C5.34 43.01 4.68 42.02 4 41 Z " fill="#EEAE1C" transform="translate(32,1)"/>
<path d="M0 0 C-0.1875 2.375 -0.1875 2.375 -1 5 C-3.4375 6.375 -3.4375 6.375 -6 7 C-6.66 6.67 -7.32 6.34 -8 6 C-8 5.01 -8 4.02 -8 3 C-7.01 3 -6.02 3 -5 3 C-5 2.34 -5 1.68 -5 1 C-3 0 -3 0 0 0 Z " fill="#EEAE1B" transform="translate(26,16)"/>
<path d="M0 0 C1.32 0.33 2.64 0.66 4 1 C3.67 1.99 3.34 2.98 3 4 C2.34 4 1.68 4 1 4 C0.67 2.68 0.34 1.36 0 0 Z " fill="#ECAF1C" transform="translate(25,12)"/>
<path d="M0 0 C0.99 0.33 1.98 0.66 3 1 C3 1.99 3 2.98 3 4 C2.01 4 1.02 4 0 4 C0 2.68 0 1.36 0 0 Z " fill="#EEAE1D" transform="translate(14,19)"/>
</svg>
