<?xml version="1.0" encoding="UTF-8"?>
<svg version="1.1" xmlns="http://www.w3.org/2000/svg" width="64" height="64">
<path d="M0 0 C0.73541016 0.00202423 1.47082031 0.00404846 2.22851562 0.00613403 C2.97939453 0.00517731 3.73027344 0.00422058 4.50390625 0.00323486 C6.09440189 0.00255315 7.6849003 0.00440682 9.27539062 0.00857544 C11.71816217 0.01392386 14.16074984 0.00863019 16.60351562 0.00222778 C18.1451827 0.00288857 19.68684966 0.00416973 21.22851562 0.00613403 C21.96392578 0.0041098 22.69933594 0.00208557 23.45703125 0 C28.61356402 0.02399493 28.61356402 0.02399493 29.72851562 1.13894653 C29.82772425 3.06656471 29.85650927 4.99784007 29.85791016 6.92800903 C29.86106232 8.16599243 29.86421448 9.40397583 29.86746216 10.67947388 C29.86567238 12.04096512 29.86362142 13.40245604 29.86132812 14.76394653 C29.86200122 16.15017718 29.86297129 17.5364077 29.86422729 18.92263794 C29.86570402 21.83134075 29.86355052 24.7400129 29.85888672 27.64871216 C29.85318943 31.38491252 29.85646857 35.12104105 29.86245918 38.85723877 C29.86606548 41.72073919 29.8649259 44.58422246 29.86233139 47.44772339 C29.86166231 48.82569385 29.86248989 50.20366585 29.86481094 51.58163452 C29.86733854 53.50438407 29.86280586 55.42713905 29.85791016 57.34988403 C29.85711456 58.44607056 29.85631897 59.54225708 29.85549927 60.67166138 C29.72851562 63.13894653 29.72851562 63.13894653 28.72851562 64.13894653 C26.80089745 64.23815516 24.86962208 64.26694018 22.93945312 64.26834106 C21.70146973 64.27149323 20.46348633 64.27464539 19.18798828 64.27789307 C17.82649704 64.27610328 16.46500611 64.27405233 15.10351562 64.27175903 C13.71728498 64.27243212 12.33105446 64.27340219 10.94482422 64.2746582 C8.03612141 64.27613493 5.12744925 64.27398143 2.21875 64.26931763 C-1.51745036 64.26362034 -5.25357889 64.26689948 -8.98977661 64.27289009 C-11.85327703 64.27649638 -14.71676031 64.27535681 -17.58026123 64.2727623 C-18.95823169 64.27209322 -20.33620369 64.2729208 -21.71417236 64.27524185 C-23.63692192 64.27776945 -25.55967689 64.27323677 -27.48242188 64.26834106 C-29.12670166 64.26714767 -29.12670166 64.26714767 -30.80419922 64.26593018 C-33.27148438 64.13894653 -33.27148438 64.13894653 -34.27148438 63.13894653 C-34.3601971 60.10916849 -34.38667788 57.10227631 -34.36914062 54.07254028 C-34.36772568 53.16391739 -34.36631073 52.25529449 -34.36485291 51.31913757 C-34.35923631 48.40487433 -34.34668102 45.49068672 -34.33398438 42.57644653 C-34.32897151 40.60574451 -34.32440824 38.6350413 -34.3203125 36.66433716 C-34.30926149 31.82251095 -34.29198575 26.98074158 -34.27148438 22.13894653 C-31.55747144 20.78194006 -29.42302121 21.02656043 -26.38867188 21.04129028 C-25.22207031 21.04451294 -24.05546875 21.0477356 -22.85351562 21.05105591 C-21.63019531 21.05943481 -20.406875 21.06781372 -19.14648438 21.07644653 C-17.91542969 21.08095825 -16.684375 21.08546997 -15.41601562 21.09011841 C-12.36779046 21.10193323 -9.31966124 21.11840626 -6.27148438 21.13894653 C-6.2793396 20.2380127 -6.2793396 20.2380127 -6.28735352 19.31887817 C-6.30806451 16.61307815 -6.32112563 13.90729477 -6.33398438 11.20144653 C-6.34236328 10.25591919 -6.35074219 9.31039185 -6.359375 8.33621216 C-6.36420898 6.98753052 -6.36420898 6.98753052 -6.36914062 5.61160278 C-6.37699585 4.36262207 -6.37699585 4.36262207 -6.38500977 3.08840942 C-6.14878579 -0.96803882 -3.422748 0.0159271 0 0 Z M-3.27148438 3.13894653 C-3.27148438 9.07894653 -3.27148438 15.01894653 -3.27148438 21.13894653 C1.20836015 22.93088434 3.10153291 23.38127456 7.68554688 23.33425903 C8.79736328 23.32781372 9.90917969 23.32136841 11.0546875 23.31472778 C12.20517578 23.29796997 13.35566406 23.28121216 14.54101562 23.26394653 C16.29575195 23.25041138 16.29575195 23.25041138 18.0859375 23.23660278 C20.96688479 23.21308485 23.84772652 23.17721532 26.72851562 23.13894653 C26.72851562 16.53894653 26.72851562 9.93894653 26.72851562 3.13894653 C16.82851563 3.13894653 6.92851563 3.13894653 -3.27148438 3.13894653 Z M-31.27148438 24.13894653 C-31.27148438 26.11894653 -31.27148438 28.09894653 -31.27148438 30.13894653 C-21.37148438 30.13894653 -11.47148437 30.13894653 -1.27148438 30.13894653 C-1.27148438 28.15894653 -1.27148438 26.17894653 -1.27148438 24.13894653 C-11.17148437 24.13894653 -21.07148438 24.13894653 -31.27148438 24.13894653 Z M1.72851562 26.13894653 C1.72851562 29.43894653 1.72851562 32.73894653 1.72851562 36.13894653 C7.33851562 36.46894653 12.94851562 36.79894653 18.72851562 37.13894653 C18.75534764 40.61816389 18.77527232 44.09717692 18.79101562 47.57644653 C18.79939453 48.56966919 18.80777344 49.56289185 18.81640625 50.58621216 C18.82124023 52.00256958 18.82124023 52.00256958 18.82617188 53.44754028 C18.8340271 54.75936279 18.8340271 54.75936279 18.84204102 56.09768677 C18.72851562 58.13894653 18.72851562 58.13894653 17.72851562 59.13894653 C16.04667615 59.37181661 14.35727403 59.55158819 12.66601562 59.70144653 C11.74691406 59.7852356 10.8278125 59.86902466 9.88085938 59.95535278 C9.17058594 60.01593872 8.4603125 60.07652466 7.72851562 60.13894653 C7.72851562 60.46894653 7.72851562 60.79894653 7.72851562 61.13894653 C13.99851562 61.13894653 20.26851562 61.13894653 26.72851562 61.13894653 C26.72851562 49.58894653 26.72851562 38.03894653 26.72851562 26.13894653 C18.47851562 26.13894653 10.22851562 26.13894653 1.72851562 26.13894653 Z M-31.27148438 33.13894653 C-31.27148438 42.37894653 -31.27148438 51.61894653 -31.27148438 61.13894653 C-21.70148437 61.13894653 -12.13148437 61.13894653 -2.27148438 61.13894653 C-2.27148438 60.80894653 -2.27148438 60.47894653 -2.27148438 60.13894653 C-3.51285156 60.02937622 -4.75421875 59.91980591 -6.03320312 59.80691528 C-7.67519335 59.64740766 -9.31711716 59.48721534 -10.95898438 59.32644653 C-11.77560547 59.25619263 -12.59222656 59.18593872 -13.43359375 59.11355591 C-18.07848801 58.64342491 -21.4558934 58.06025837 -25.27148438 55.13894653 C-27.63005902 52.10649342 -27.63082353 48.87828839 -27.52539062 45.10379028 C-27.14790969 42.18266861 -26.13007065 40.3958013 -24.27148438 38.13894653 C-21.32767448 36.33155121 -19.15545913 35.8972712 -15.72460938 35.94363403 C-14.45810547 35.953302 -14.45810547 35.953302 -13.16601562 35.96316528 C-12.29332031 35.9799231 -11.420625 35.99668091 -10.52148438 36.01394653 C-9.18923828 36.02748169 -9.18923828 36.02748169 -7.83007812 36.04129028 C-5.6436038 36.06480076 -3.45768343 36.09766154 -1.27148438 36.13894653 C-1.27148438 35.14894653 -1.27148438 34.15894653 -1.27148438 33.13894653 C-11.17148437 33.13894653 -21.07148438 33.13894653 -31.27148438 33.13894653 Z M-19.27148438 38.13894653 C-19.27148438 38.46894653 -19.27148438 38.79894653 -19.27148438 39.13894653 C-17.62148438 39.13894653 -15.97148437 39.13894653 -14.27148438 39.13894653 C-14.27148438 38.80894653 -14.27148438 38.47894653 -14.27148438 38.13894653 C-15.92148437 38.13894653 -17.57148438 38.13894653 -19.27148438 38.13894653 Z M-11.27148438 39.13894653 C-11.27148438 43.75894653 -11.27148438 48.37894653 -11.27148438 53.13894653 C-2.03148437 53.13894653 7.20851563 53.13894653 16.72851562 53.13894653 C16.72851562 48.51894653 16.72851562 43.89894653 16.72851562 39.13894653 C7.48851562 39.13894653 -1.75148438 39.13894653 -11.27148438 39.13894653 Z M-19.27148438 42.13894653 C-20.97680761 44.07904176 -20.97680761 44.07904176 -22.27148438 46.13894653 C-21.94148438 46.79894653 -21.61148437 47.45894653 -21.27148438 48.13894653 C-19.62148438 46.15894653 -17.97148437 44.17894653 -16.27148438 42.13894653 C-17.26148438 42.13894653 -18.25148438 42.13894653 -19.27148438 42.13894653 Z M-17.27148438 47.13894653 C-18.59148438 48.12894653 -19.91148438 49.11894653 -21.27148438 50.13894653 C-19.46186861 51.76726415 -19.46186861 51.76726415 -17.27148438 53.13894653 C-16.28148437 52.80894653 -15.29148437 52.47894653 -14.27148438 52.13894653 C-14.27148438 51.47894653 -14.27148438 50.81894653 -14.27148438 50.13894653 C-14.93148438 50.13894653 -15.59148438 50.13894653 -16.27148438 50.13894653 C-16.60148437 49.14894653 -16.93148438 48.15894653 -17.27148438 47.13894653 Z M-11.27148438 56.13894653 C-11.27148438 56.46894653 -11.27148438 56.79894653 -11.27148438 57.13894653 C-2.03148437 57.13894653 7.20851563 57.13894653 16.72851562 57.13894653 C16.72851562 56.80894653 16.72851562 56.47894653 16.72851562 56.13894653 C7.48851562 56.13894653 -1.75148438 56.13894653 -11.27148438 56.13894653 Z M0.72851562 60.13894653 C4.72851562 61.13894653 4.72851562 61.13894653 4.72851562 61.13894653 Z " fill="#EEAE1D" transform="translate(34.271484375,-0.138946533203125)"/>
<path d="M0 0 C-0.57619097 3.56764821 -1.86969484 5.25159497 -4.4375 7.75 C-5.05496094 8.36359375 -5.67242187 8.9771875 -6.30859375 9.609375 C-8 11 -8 11 -10 11 C-9.42380903 7.43235179 -8.13030516 5.74840503 -5.5625 3.25 C-4.94503906 2.63640625 -4.32757813 2.0228125 -3.69140625 1.390625 C-2 0 -2 0 0 0 Z " fill="#EDAE1C" transform="translate(39,40)"/>
<path d="M0 0 C0.66 0.33 1.32 0.66 2 1 C2 4.63 2 8.26 2 12 C1.01 12 0.02 12 -1 12 C-1.02687279 10.18757948 -1.04633715 8.37504767 -1.0625 6.5625 C-1.07410156 5.55316406 -1.08570313 4.54382813 -1.09765625 3.50390625 C-1 1 -1 1 0 0 Z " fill="#EEAE1C" transform="translate(34,8)"/>
<path d="M0 0 C2.97 0 5.94 0 9 0 C9 0.99 9 1.98 9 3 C6.03 3 3.06 3 0 3 C0 2.01 0 1.02 0 0 Z " fill="#EEAC1B" transform="translate(4,26)"/>
<path d="M0 0 C0.99 0.33 1.98 0.66 3 1 C1.38405168 3.04119788 -0.2856382 5.04072937 -2 7 C-2.66 7 -3.32 7 -4 7 C-3.43628586 3.73045798 -2.50037734 2.17424117 0 0 Z " fill="#EDAE1D" transform="translate(40,43)"/>
<path d="M0 0 C1.98 0 3.96 0 6 0 C6 0.99 6 1.98 6 3 C4.02 3 2.04 3 0 3 C0 2.01 0 1.02 0 0 Z " fill="#EDAE1C" transform="translate(26,26)"/>
<path d="M0 0 C1.98 0 3.96 0 6 0 C6 0.99 6 1.98 6 3 C4.02 3 2.04 3 0 3 C0 2.01 0 1.02 0 0 Z " fill="#EDAE1C" transform="translate(19,26)"/>
</svg>
