<?xml version="1.0" encoding="UTF-8"?>
<svg version="1.1" xmlns="http://www.w3.org/2000/svg" width="64" height="64">
<path d="M0 0 C8.91 0 17.82 0 27 0 C26.855625 2.3925 26.71125 4.785 26.5625 7.25 C26.49784546 8.37003418 26.49784546 8.37003418 26.43188477 9.51269531 C26.22036831 12.83793079 25.81233611 15.75065557 25 19 C36.88 19 48.76 19 61 19 C61 26.95290873 60.70956016 29.30501557 56 35 C55.113125 35.680625 54.22625 36.36125 53.3125 37.0625 C50.21713385 39.65591488 49.97205622 42.16059987 49 46 C43.25255142 46.07426628 37.5053834 46.12865726 31.75756836 46.16479492 C29.80309177 46.17986301 27.84864888 46.20032124 25.89428711 46.22631836 C23.08178377 46.26278865 20.26972826 46.27974622 17.45703125 46.29296875 C16.15050346 46.31619453 16.15050346 46.31619453 14.81758118 46.33988953 C10.02390905 46.34121341 6.908623 46.08758228 3 43 C2.34 42.34 1.68 41.68 1 41 C-1.06874034 40.3574765 -1.06874034 40.3574765 -3 40 C-3.042721 38.33388095 -3.04063832 36.66617115 -3 35 C-2 34 -2 34 0.5625 33.9375 C1.366875 33.958125 2.17125 33.97875 3 34 C2.80083984 32.76636719 2.80083984 32.76636719 2.59765625 31.5078125 C0.90847557 20.83021783 0 10.88248772 0 0 Z M3 2 C3 3.98 3 5.96 3 8 C7.62 8 12.24 8 17 8 C17 8.66 17 9.32 17 10 C12.38 10 7.76 10 3 10 C3.66 17.26 4.32 24.52 5 32 C5.66 31.67 6.32 31.34 7 31 C7 30.01 7 29.02 7 28 C7.99 27.67 8.98 27.34 10 27 C10 26.34 10 25.68 10 25 C10.53625 24.87625 11.0725 24.7525 11.625 24.625 C14.4638286 23.87793984 17.22223202 22.94696636 20 22 C20 21.01 20 20.02 20 19 C20.66 19 21.32 19 22 19 C22.33 16.03 22.66 13.06 23 10 C21.35 10 19.7 10 18 10 C18 9.34 18 8.68 18 8 C19.65 8 21.3 8 23 8 C23.33 6.02 23.66 4.04 24 2 C17.07 2 10.14 2 3 2 Z M25 22 C25 22.33 25 22.66 25 23 C35.89 23 46.78 23 58 23 C58 22.67 58 22.34 58 22 C47.11 22 36.22 22 25 22 Z M15 26 C15 26.66 15 27.32 15 28 C14.01 28 13.02 28 12 28 C11.01 29.98 10.02 31.96 9 34 C14.61 34 20.22 34 26 34 C26 34.99 26 35.98 26 37 C26.66 37 27.32 37 28 37 C28 36.01 28 35.02 28 34 C29.65 34 31.3 34 33 34 C32.49396008 31.83125748 32.00016187 30.00032373 31 28 C28.99085607 27.08886335 28.99085607 27.08886335 26.625 26.375 C25.83351563 26.11460938 25.04203125 25.85421875 24.2265625 25.5859375 C20.86307668 24.70080965 18.28584805 25.09355916 15 26 Z M33 26 C33 26.33 33 26.66 33 27 C40.92 27 48.84 27 57 27 C57 26.67 57 26.34 57 26 C49.08 26 41.16 26 33 26 Z M36 30 C36.66 31.32 37.32 32.64 38 34 C41.56206661 34.81870185 41.56206661 34.81870185 45 35 C45 36.32 45 37.64 45 39 C44.360625 39.103125 43.72125 39.20625 43.0625 39.3125 C42.0415625 39.6528125 42.0415625 39.6528125 41 40 C40.67 40.99 40.34 41.98 40 43 C42.31 43 44.62 43 47 43 C47.020625 42.13375 47.04125 41.2675 47.0625 40.375 C48.24034619 36.1347537 50.10123268 34.80770694 53.50390625 32.19921875 C53.99761719 31.80347656 54.49132812 31.40773438 55 31 C55 30.67 55 30.34 55 30 C48.73 30 42.46 30 36 30 Z M5 40 C8.50487183 43.50487183 9.14133918 43.38324696 13.875 43.3984375 C15.59976562 43.40423828 15.59976562 43.40423828 17.359375 43.41015625 C18.56078125 43.39855469 19.7621875 43.38695312 21 43.375 C22.20140625 43.38660156 23.4028125 43.39820313 24.640625 43.41015625 C25.79046875 43.40628906 26.9403125 43.40242188 28.125 43.3984375 C29.17945312 43.39505371 30.23390625 43.39166992 31.3203125 43.38818359 C34.38070173 43.21772613 34.38070173 43.21772613 37 40 C26.44 40 15.88 40 5 40 Z " fill="#EEAE1C" transform="translate(3,10)"/>
<path d="M0 0 C3.63 0 7.26 0 11 0 C11 0.66 11 1.32 11 2 C8.36 2 5.72 2 3 2 C3 2.66 3 3.32 3 4 C6.3 4 9.6 4 13 4 C13.625 6.375 13.625 6.375 14 9 C12 11 12 11 9.3984375 11.1953125 C8.40070312 11.17210937 7.40296875 11.14890625 6.375 11.125 C4.87066406 11.09792969 4.87066406 11.09792969 3.3359375 11.0703125 C2.56507812 11.04710937 1.79421875 11.02390625 1 11 C0.67 12.32 0.34 13.64 0 15 C-0.66 14.67 -1.32 14.34 -2 14 C-2 12.35 -2 10.7 -2 9 C-0.68 8.34 0.64 7.68 2 7 C1.484375 6.5875 0.96875 6.175 0.4375 5.75 C-0.036875 5.1725 -0.51125 4.595 -1 4 C-0.67 2.68 -0.34 1.36 0 0 Z " fill="#EEAE1B" transform="translate(37,13)"/>
<path d="M0 0 C3.375 -0.125 3.375 -0.125 7 0 C7.66 0.66 8.32 1.32 9 2 C8.625 4.625 8.625 4.625 8 7 C4.7 7 1.4 7 -2 7 C-1.34 5.68 -0.68 4.36 0 3 C0 2.01 0 1.02 0 0 Z " fill="#EEAD1C" transform="translate(52,8)"/>
<path d="M0 0 C1.32 0 2.64 0 4 0 C3.67 0.99 3.34 1.98 3 3 C1.68 2.67 0.36 2.34 -1 2 C-0.67 1.34 -0.34 0.68 0 0 Z " fill="#F1AC1F" transform="translate(21,38)"/>
<path d="M0 0 C1.32 0 2.64 0 4 0 C4 0.99 4 1.98 4 3 C2.68 2.67 1.36 2.34 0 2 C0 1.34 0 0.68 0 0 Z " fill="#EDAC1C" transform="translate(27,40)"/>
<path d="M0 0 C1.65 0 3.3 0 5 0 C5 0.66 5 1.32 5 2 C3.35 2 1.7 2 0 2 C0 1.34 0 0.68 0 0 Z " fill="#F2B217" transform="translate(14,41)"/>
</svg>
