<?xml version="1.0" encoding="UTF-8"?>
<svg version="1.1" xmlns="http://www.w3.org/2000/svg" width="64" height="64">
<path d="M0 0 C8.34468007 4.97590182 13.53387008 11.86345977 16.109375 21.2578125 C17.10789012 32.35758522 16.45884702 41.9922991 9.359375 51.0703125 C3.70168013 57.1280464 -3.34488592 60.84888618 -11.625 61.59375 C-22.35447774 61.83515993 -31.19802606 60.58332943 -39.359375 52.9609375 C-46.75303791 44.73737365 -48.47252567 36.02335615 -48.203125 25.24609375 C-47.72879865 16.86039919 -44.11592977 9.8548755 -37.890625 4.2578125 C-27.15195714 -3.81766573 -12.32399863 -5.91386512 0 0 Z M-36.890625 9.2578125 C-42.68831575 16.2150414 -45.23396822 22.60280075 -44.828125 31.6328125 C-43.74035823 40.55744441 -39.958482 47.28336795 -32.91796875 52.85546875 C-26.1248061 57.55440014 -18.38636133 59.0927105 -10.2421875 57.85546875 C-1.14802868 55.49098746 5.0420903 50.5105259 9.91796875 42.5390625 C13.54291852 35.59817507 13.72365288 28.88315144 12.109375 21.2578125 C9.12099582 12.4214844 3.81995593 6.92417907 -4.203125 2.3828125 C-16.34342262 -1.32100711 -27.63438363 0.12075021 -36.890625 9.2578125 Z " fill="#EEAF1C" transform="translate(47.890625,2.7421875)"/>
<path d="M0 0 C1.093125 0.00257812 2.18625 0.00515625 3.3125 0.0078125 C4.405625 0.00523438 5.49875 0.00265625 6.625 0 C9.3125 0.1328125 9.3125 0.1328125 10.3125 1.1328125 C10.38476502 2.98568752 10.3963122 4.84115128 10.375 6.6953125 C10.36597656 7.70722656 10.35695313 8.71914063 10.34765625 9.76171875 C10.33605469 10.54417969 10.32445313 11.32664062 10.3125 12.1328125 C11.09496094 12.12121094 11.87742187 12.10960937 12.68359375 12.09765625 C13.69550781 12.08863281 14.70742188 12.07960938 15.75 12.0703125 C16.75933594 12.05871094 17.76867188 12.04710937 18.80859375 12.03515625 C21.3125 12.1328125 21.3125 12.1328125 22.3125 13.1328125 C22.41123816 15.13080822 22.44221799 17.13238408 22.4375 19.1328125 C22.44136719 20.7725 22.44136719 20.7725 22.4453125 22.4453125 C22.3125 25.1328125 22.3125 25.1328125 21.3125 26.1328125 C19.45962498 26.20507752 17.60416122 26.2166247 15.75 26.1953125 C14.73808594 26.18628906 13.72617187 26.17726563 12.68359375 26.16796875 C11.50990234 26.15056641 11.50990234 26.15056641 10.3125 26.1328125 C10.32410156 26.91527344 10.33570312 27.69773437 10.34765625 28.50390625 C10.35667969 29.51582031 10.36570312 30.52773438 10.375 31.5703125 C10.38660156 32.57964844 10.39820312 33.58898438 10.41015625 34.62890625 C10.3125 37.1328125 10.3125 37.1328125 9.3125 38.1328125 C7.31450428 38.23155066 5.31292842 38.26253049 3.3125 38.2578125 C2.219375 38.26039062 1.12625 38.26296875 0 38.265625 C-2.6875 38.1328125 -2.6875 38.1328125 -3.6875 37.1328125 C-3.75976502 35.27993748 -3.7713122 33.42447372 -3.75 31.5703125 C-3.74097656 30.55839844 -3.73195313 29.54648437 -3.72265625 28.50390625 C-3.71105469 27.72144531 -3.69945312 26.93898438 -3.6875 26.1328125 C-4.46996094 26.14441406 -5.25242187 26.15601562 -6.05859375 26.16796875 C-7.07050781 26.17699219 -8.08242188 26.18601562 -9.125 26.1953125 C-10.13433594 26.20691406 -11.14367187 26.21851562 -12.18359375 26.23046875 C-14.6875 26.1328125 -14.6875 26.1328125 -15.6875 25.1328125 C-15.78623816 23.13481678 -15.81721799 21.13324092 -15.8125 19.1328125 C-15.81507812 18.0396875 -15.81765625 16.9465625 -15.8203125 15.8203125 C-15.6875 13.1328125 -15.6875 13.1328125 -14.6875 12.1328125 C-12.83462498 12.06054748 -10.97916122 12.0490003 -9.125 12.0703125 C-8.11308594 12.07933594 -7.10117187 12.08835937 -6.05859375 12.09765625 C-4.88490234 12.11505859 -4.88490234 12.11505859 -3.6875 12.1328125 C-3.69910156 11.35035156 -3.71070313 10.56789063 -3.72265625 9.76171875 C-3.73167969 8.74980469 -3.74070312 7.73789062 -3.75 6.6953125 C-3.76160156 5.68597656 -3.77320313 4.67664063 -3.78515625 3.63671875 C-3.64920313 0.15088088 -3.49932324 0.17293167 0 0 Z M-0.6875 4.1328125 C-0.6875 7.7628125 -0.6875 11.3928125 -0.6875 15.1328125 C-4.3175 15.1328125 -7.9475 15.1328125 -11.6875 15.1328125 C-11.6875 17.7728125 -11.6875 20.4128125 -11.6875 23.1328125 C-8.0575 23.1328125 -4.4275 23.1328125 -0.6875 23.1328125 C-0.6875 26.7628125 -0.6875 30.3928125 -0.6875 34.1328125 C1.9525 34.1328125 4.5925 34.1328125 7.3125 34.1328125 C7.3125 30.5028125 7.3125 26.8728125 7.3125 23.1328125 C10.9425 23.1328125 14.5725 23.1328125 18.3125 23.1328125 C18.3125 20.4928125 18.3125 17.8528125 18.3125 15.1328125 C14.6825 15.1328125 11.0525 15.1328125 7.3125 15.1328125 C7.3125 11.5028125 7.3125 7.8728125 7.3125 4.1328125 C4.6725 4.1328125 2.0325 4.1328125 -0.6875 4.1328125 Z " fill="#EDAE1C" transform="translate(28.6875,12.8671875)"/>
</svg>
