<?xml version="1.0" encoding="UTF-8"?>
<svg version="1.1" xmlns="http://www.w3.org/2000/svg" width="64" height="64">
<path d="M0 0 C9.84997386 -0.62101411 9.84997386 -0.62101411 14.125 1.6875 C16 4 16 4 17 9 C32.51 9 48.02 9 64 9 C63.35613337 15.43866632 62.78125672 20.76665752 61.1875 26.875 C60.71376953 28.75832031 60.71376953 28.75832031 60.23046875 30.6796875 C58.92838868 34.19323688 58.04486912 35.84100744 55 38 C52.08984375 38.50390625 52.08984375 38.50390625 48.9375 38.5625 C45.83261101 38.56894818 45.83261101 38.56894818 43 39 C42.53134521 39.4942749 42.06269043 39.9885498 41.57983398 40.49780273 C39.59583477 42.38430361 38.64278412 42.37918301 35.9453125 42.40625 C35.16542969 42.42816406 34.38554688 42.45007812 33.58203125 42.47265625 C32.36580078 42.48619141 32.36580078 42.48619141 31.125 42.5 C29.52323376 42.51799737 27.92155199 42.54890474 26.3203125 42.59375 C25.61148926 42.60083984 24.90266602 42.60792969 24.17236328 42.61523438 C21.35836523 42.98031227 21.35836523 42.98031227 17 46 C31.19 46.33 45.38 46.66 60 47 C61 51 61 51 60 53 C53.37985308 53.10139564 46.75990628 53.17146336 40.13916016 53.21972656 C37.88680539 53.23984556 35.63450287 53.26714408 33.38232422 53.30175781 C30.14537669 53.35026209 26.90911953 53.37296605 23.671875 53.390625 C22.16074127 53.42159271 22.16074127 53.42159271 20.61907959 53.45318604 C13.65015745 53.4554243 13.65015745 53.4554243 10.37207031 51.15917969 C8.4400662 48.11885151 8.27890243 46.5333781 9 43 C11.875 40.25 11.875 40.25 15 38 C15.66 37.34 16.32 36.68 17 36 C16.64837945 33.18892738 16.64837945 33.18892738 15.734375 29.96875 C15.42113281 28.76605469 15.10789062 27.56335938 14.78515625 26.32421875 C14.27275391 24.43123047 14.27275391 24.43123047 13.75 22.5 C13.42386719 21.23800781 13.09773437 19.97601562 12.76171875 18.67578125 C11.41326003 12.28605266 11.41326003 12.28605266 8 7 C5.67182036 6.63239269 3.3381615 6.29758419 1 6 C0 5 0 5 -0.0625 2.4375 C-0.041875 1.633125 -0.02125 0.82875 0 0 Z M3 2 C3 2.33 3 2.66 3 3 C4.65 3 6.3 3 8 3 C8 2.67 8 2.34 8 2 C6.35 2 4.7 2 3 2 Z M13 7 C14 9 14 9 14 9 Z M14 10 C15 13 15 13 15 13 Z M18 12 C18.66 13.98 19.32 15.96 20 18 C21.65 18 23.3 18 25 18 C25.042721 16.33388095 25.04063832 14.66617115 25 13 C23.87465895 11.64381501 23.87465895 11.64381501 20.9375 11.9375 C19.968125 11.958125 18.99875 11.97875 18 12 Z M27 12 C27.33 14.31 27.66 16.62 28 19 C29.98 18.67 31.96 18.34 34 18 C34 16.02 34 14.04 34 12 C31.69 12 29.38 12 27 12 Z M37 12 C37 13.98 37 15.96 37 18 C38.98 18 40.96 18 43 18 C43 16.02 43 14.04 43 12 C41.02 12 39.04 12 37 12 Z M46 12 C45.67 13.98 45.34 15.96 45 18 C46.98 18 48.96 18 51 18 C51.33 16.02 51.66 14.04 52 12 C50.02 12 48.04 12 46 12 Z M55 12 C54.67 13.98 54.34 15.96 54 18 C55.98 18 57.96 18 60 18 C60.33 16.02 60.66 14.04 61 12 C59.02 12 57.04 12 55 12 Z M15 14 C16 16 16 16 16 16 Z M16 17 C17 20 17 20 17 20 Z M29 20 C29 21.98 29 23.96 29 26 C31.475 26.495 31.475 26.495 34 27 C34 25.02 34 23.04 34 21 C32.35 20.67 30.7 20.34 29 20 Z M17 21 C18 24 18 24 18 24 Z M21 21 C21.33 22.98 21.66 24.96 22 27 C23.65 27 25.3 27 27 27 C26.67 25.02 26.34 23.04 26 21 C24.35 21 22.7 21 21 21 Z M37 21 C37 22.98 37 24.96 37 27 C38.65 27 40.3 27 42 27 C42 25.02 42 23.04 42 21 C40.35 21 38.7 21 37 21 Z M45 21 C45 22.98 45 24.96 45 27 C46.65 27 48.3 27 50 27 C50.33 25.02 50.66 23.04 51 21 C49.02 21 47.04 21 45 21 Z M53 22 C52.95936168 23.66617115 52.957279 25.33388095 53 27 C54.65 26.67 56.3 26.34 58 26 C58.33 24.35 58.66 22.7 59 21 C55.71069596 20.63314303 55.71069596 20.63314303 53 22 Z M18 25 C19 28 19 28 19 28 Z M19 29 C20 32 20 32 20 32 Z M23 29 C23.33 30.98 23.66 32.96 24 35 C25.32 35 26.64 35 28 35 C27.67 33.02 27.34 31.04 27 29 C25.68 29 24.36 29 23 29 Z M30 29 C30.33 30.98 30.66 32.96 31 35 C32.32 35 33.64 35 35 35 C35 33.02 35 31.04 35 29 C33.35 29 31.7 29 30 29 Z M37 29 C37.33 30.98 37.66 32.96 38 35 C39.32 35 40.64 35 42 35 C42 33.02 42 31.04 42 29 C40.35 29 38.7 29 37 29 Z M45 29 C45 30.98 45 32.96 45 35 C46.32 35 47.64 35 49 35 C49 33.02 49 31.04 49 29 C47.68 29 46.36 29 45 29 Z M52 29 C52 30.98 52 32.96 52 35 C54.0162233 34.28436734 54.0162233 34.28436734 56 33 C56.80528889 30.94999129 56.80528889 30.94999129 57 29 C55.35 29 53.7 29 52 29 Z M20 33 C21 36 21 36 21 36 Z M21 37 C21 37.66 21 38.32 21 39 C26.94 39 32.88 39 39 39 C39 38.67 39 38.34 39 38 C33.06 37.67 27.12 37.34 21 37 Z M12 44 C13 48 13 48 13 48 Z M14 49 C14 49.33 14 49.66 14 50 C28.19 50 42.38 50 57 50 C57 49.67 57 49.34 57 49 C42.81 49 28.62 49 14 49 Z " fill="#EEAE1C" transform="translate(0,0)"/>
<path d="M0 0 C2.5625 0.3125 2.5625 0.3125 4.4375 1.4375 C5.5625 3.3125 5.5625 3.3125 5.3125 6.4375 C4.5625 9.3125 4.5625 9.3125 3.5625 10.3125 C0.125 10.5625 0.125 10.5625 -3.4375 10.3125 C-5.4375 7.3125 -5.4375 7.3125 -5.1875 4.75 C-4.19253762 1.51637226 -3.41216263 0.43745675 0 0 Z M1.5625 4.3125 C2.5625 6.3125 2.5625 6.3125 2.5625 6.3125 Z " fill="#EFAF1B" transform="translate(21.4375,53.6875)"/>
<path d="M0 0 C2.5625 0.3125 2.5625 0.3125 4.375 1.5 C5.96449375 3.9260694 5.92737512 5.46647406 5.5625 8.3125 C3.5625 10.3125 3.5625 10.3125 0.5625 10.5 C-2.4375 10.3125 -2.4375 10.3125 -4.4375 9.3125 C-4.5625 5.9375 -4.5625 5.9375 -4.4375 2.3125 C-2.4375 0.3125 -2.4375 0.3125 0 0 Z M1.5625 4.3125 C2.5625 6.3125 2.5625 6.3125 2.5625 6.3125 Z " fill="#EFB11A" transform="translate(53.4375,53.6875)"/>
</svg>
