<?xml version="1.0" encoding="UTF-8"?>
<svg version="1.1" xmlns="http://www.w3.org/2000/svg" width="64" height="64">
<path d="M0 0 C1.14597656 -0.03738281 2.29195312 -0.07476562 3.47265625 -0.11328125 C4.57996094 -0.12488281 5.68726563 -0.13648438 6.828125 -0.1484375 C7.84293945 -0.16825684 8.85775391 -0.18807617 9.90332031 -0.20849609 C13.94749092 0.62045483 15.3453287 2.04693927 17.75 5.375 C18.18857267 8.36691443 18.33901776 10.76514885 18.23828125 13.73828125 C18.23120651 14.53026413 18.22413177 15.32224701 18.21684265 16.13822937 C18.18896244 18.65563389 18.126242 21.17077356 18.0625 23.6875 C18.03740861 25.3990563 18.01459691 27.11064765 17.99414062 28.82226562 C17.93915747 33.00737654 17.85293418 37.19080496 17.75 41.375 C15.275 41.87 15.275 41.87 12.75 42.375 C12.42 44.025 12.09 45.675 11.75 47.375 C1.85 47.375 -8.05 47.375 -18.25 47.375 C-18.25 33.845 -18.25 20.315 -18.25 6.375 C-16.6 6.375 -14.95 6.375 -13.25 6.375 C-13.270625 5.570625 -13.29125 4.76625 -13.3125 3.9375 C-13.16365767 -2.16503559 -4.6611966 0.05690695 0 0 Z M-10.25 3.375 C-10.25 15.255 -10.25 27.135 -10.25 39.375 C-2 39.375 6.25 39.375 14.75 39.375 C14.75 29.805 14.75 20.235 14.75 10.375 C11.78 9.88 11.78 9.88 8.75 9.375 C8.42 7.395 8.09 5.415 7.75 3.375 C1.81 3.375 -4.13 3.375 -10.25 3.375 Z M10.75 4.375 C10.75 5.365 10.75 6.355 10.75 7.375 C11.74 7.045 12.73 6.715 13.75 6.375 C12.76 5.715 11.77 5.055 10.75 4.375 Z M-15.25 9.375 C-15.25 20.925 -15.25 32.475 -15.25 44.375 C-7.33 44.375 0.59 44.375 8.75 44.375 C8.75 43.715 8.75 43.055 8.75 42.375 C1.82 42.045 -5.11 41.715 -12.25 41.375 C-12.58 30.815 -12.91 20.255 -13.25 9.375 C-13.91 9.375 -14.57 9.375 -15.25 9.375 Z " fill="#EEAE1C" transform="translate(21.25,3.625)"/>
<path d="M0 0 C5.28 0 10.56 0 16 0 C16.05376941 3.29188269 16.09356106 6.58289426 16.125 9.875 C16.14175781 10.81214844 16.15851562 11.74929687 16.17578125 12.71484375 C16.18222656 13.61074219 16.18867187 14.50664063 16.1953125 15.4296875 C16.20578613 16.25710449 16.21625977 17.08452148 16.22705078 17.93701172 C16 20 16 20 14 22 C9.28044334 22.89782812 4.84129262 22.91921004 0.49609375 20.75 C-2.57080374 18.37987528 -4.61558282 16.44454902 -5.62890625 12.63671875 C-5.75100957 10.23010162 -5.64759874 8.32017389 -5 6 C-3.0625 4.125 -3.0625 4.125 -1 3 C-0.67 2.01 -0.34 1.02 0 0 Z M3 3 C3 7.95 3 12.9 3 18 C3.66 17.34 4.32 16.68 5 16 C7.65537372 15.43479997 10.29144713 15.26211802 13 15 C13 11.04 13 7.08 13 3 C9.7 3 6.4 3 3 3 Z M-1 7 C-2.35618499 8.12534105 -2.35618499 8.12534105 -2.0625 11.0625 C-2.041875 12.031875 -2.02125 13.00125 -2 14 C-1.34 14 -0.68 14 0 14 C0 11.69 0 9.38 0 7 C-0.33 7 -0.66 7 -1 7 Z M4 18 C4 18.33 4 18.66 4 19 C6.97 19 9.94 19 13 19 C13 18.67 13 18.34 13 18 C10.03 18 7.06 18 4 18 Z " fill="#EEAE1C" transform="translate(45,38)"/>
<path d="M0 0 C0.70507187 -0.00095673 1.41014374 -0.00191345 2.13658142 -0.00289917 C3.62694386 -0.00357979 5.11730927 -0.00173371 6.60766602 0.00244141 C8.89671433 0.00779932 11.18556712 0.00248841 13.47460938 -0.00390625 C14.92057335 -0.0032456 16.36653721 -0.00196472 17.8125 0 C18.84528831 -0.00303635 18.84528831 -0.00303635 19.89894104 -0.00613403 C24.72488611 0.01785486 24.72488611 0.01785486 25.83984375 1.1328125 C25.88048207 2.79898365 25.88256475 4.46669345 25.83984375 6.1328125 C21.55877677 8.27334599 15.8465242 7.31866701 11.09130859 7.31811523 C8.97993675 7.3202969 6.86909154 7.33844353 4.7578125 7.35742188 C3.4127622 7.36035692 2.06770942 7.36234097 0.72265625 7.36328125 C-0.50050293 7.36739014 -1.72366211 7.37149902 -2.98388672 7.37573242 C-5.98245047 7.14640337 -7.64588242 6.7113698 -10.16015625 5.1328125 C-9.78515625 3.1953125 -9.78515625 3.1953125 -9.16015625 1.1328125 C-6.21295016 -0.34079055 -3.22980257 -0.00952346 0 0 Z M-4.16015625 3.1328125 C-4.16015625 3.4628125 -4.16015625 3.7928125 -4.16015625 4.1328125 C3.42984375 4.1328125 11.01984375 4.1328125 18.83984375 4.1328125 C18.83984375 3.8028125 18.83984375 3.4728125 18.83984375 3.1328125 C11.24984375 3.1328125 3.65984375 3.1328125 -4.16015625 3.1328125 Z " fill="#EEAE1C" transform="translate(13.16015625,52.8671875)"/>
<path d="M0 0 C6.6 0 13.2 0 20 0 C20 4.62 20 9.24 20 14 C13.4 14 6.8 14 0 14 C0 9.38 0 4.76 0 0 Z M3 3 C3 5.64 3 8.28 3 11 C7.62 11 12.24 11 17 11 C17 8.36 17 5.72 17 3 C12.38 3 7.76 3 3 3 Z " fill="#EEAD1D" transform="translate(41,4)"/>
<path d="M0 0 C6.6 0 13.2 0 20 0 C20 4.29 20 8.58 20 13 C13.4 13 6.8 13 0 13 C0 8.71 0 4.42 0 0 Z M3 3 C3 5.64 3 8.28 3 11 C7.62 11 12.24 11 17 11 C17 8.36 17 5.72 17 3 C12.38 3 7.76 3 3 3 Z " fill="#EEAD1D" transform="translate(41,20)"/>
<path d="M0 0 C6.27 0 12.54 0 19 0 C19 0.99 19 1.98 19 3 C12.73 3 6.46 3 0 3 C0 2.01 0 1.02 0 0 Z " fill="#EDAD1D" transform="translate(14,26)"/>
<path d="M0 0 C6.27 0 12.54 0 19 0 C19 0.99 19 1.98 19 3 C12.73 3 6.46 3 0 3 C0 2.01 0 1.02 0 0 Z " fill="#EEAD1C" transform="translate(14,21)"/>
<path d="M0 0 C5.94 0 11.88 0 18 0 C18 0.99 18 1.98 18 3 C11.73 3 5.46 3 -1 3 C-0.67 2.01 -0.34 1.02 0 0 Z " fill="#EEAE1C" transform="translate(15,16)"/>
<path d="M0 0 C6.27 0 12.54 0 19 0 C19 0.66 19 1.32 19 2 C12.73 2 6.46 2 0 2 C0 1.34 0 0.68 0 0 Z " fill="#EDAD1D" transform="translate(14,31)"/>
<path d="M0 0 C3.96 0 7.92 0 12 0 C12 0.99 12 1.98 12 3 C8.04 3 4.08 3 0 3 C0 2.01 0 1.02 0 0 Z " fill="#EEAC1C" transform="translate(45,11)"/>
<path d="M0 0 C3.3 0 6.6 0 10 0 C10.33 0.99 10.66 1.98 11 3 C7.04 3 3.08 3 -1 3 C-0.67 2.01 -0.34 1.02 0 0 Z " fill="#EEB01D" transform="translate(46,26)"/>
</svg>
