<?xml version="1.0" encoding="UTF-8"?>
<svg version="1.1" xmlns="http://www.w3.org/2000/svg" width="64" height="64">
<path d="M0 0 C3.96 0 7.92 0 12 0 C12.495 4.455 12.495 4.455 13 9 C15.87450983 9.25048636 15.87450983 9.25048636 19 9 C20.02019573 8.0206121 21.02149805 7.02104551 22 6 C24.375 5.5 24.375 5.5 27 6 C30.02682378 8.35419628 31.77123743 9.79899653 32.5 13.625 C32 16 32 16 30.4375 17.4375 C29.963125 17.953125 29.48875 18.46875 29 19 C29.23283149 22.14921909 29.23283149 22.14921909 30 25 C32.64 25.33 35.28 25.66 38 26 C38 29.96 38 33.92 38 38 C36.72125 38.0825 35.4425 38.165 34.125 38.25 C31.94666582 38.45869931 31.94666582 38.45869931 30 39 C28.4100567 40.92064793 28.4100567 40.92064793 28 43 C27.01 42.505 27.01 42.505 26 42 C26.33 40.02 26.66 38.04 27 36 C29.64 36 32.28 36 35 36 C35 33.36 35 30.72 35 28 C32.36 28 29.72 28 27 28 C23.96118488 21.67926456 23.96118488 21.67926456 24.125 18.8125 C25.1730615 16.64151546 26.47232296 14.85978075 28 13 C26.68 12.01 25.36 11.02 24 10 C23.443125 10.680625 22.88625 11.36125 22.3125 12.0625 C20 14 20 14 17.5625 13.875 C14.99935326 12.99977916 12.48960123 12.06697195 10 11 C9.505 7.04 9.505 7.04 9 3 C7.02 3 5.04 3 3 3 C2.979375 4.258125 2.95875 5.51625 2.9375 6.8125 C2.671875 9.015625 2.671875 9.015625 2 11 C-1.18363697 12.98226453 -3.39676151 14.09161363 -7.1875 13.875 C-9.35848454 12.8269385 -11.14021925 11.52767704 -13 10 C-13.99 11.32 -14.98 12.64 -16 14 C-15.319375 14.556875 -14.63875 15.11375 -13.9375 15.6875 C-12 18 -12 18 -12.125 20.4375 C-13.00022084 23.00064674 -13.93302805 25.51039877 -15 28 C-18.96 28.495 -18.96 28.495 -23 29 C-23 30.98 -23 32.96 -23 35 C-21.741875 35.020625 -20.48375 35.04125 -19.1875 35.0625 C-16.984375 35.328125 -16.984375 35.328125 -15 36 C-13.01773547 39.18363697 -11.90838637 41.39676151 -12.125 45.1875 C-13.1730615 47.35848454 -14.47232296 49.14021925 -16 51 C-14.68 51.99 -13.36 52.98 -12 54 C-11.443125 53.319375 -10.88625 52.63875 -10.3125 51.9375 C-8 50 -8 50 -5.5625 50.125 C-2.99935326 51.00022084 -0.48960123 51.93302805 2 53 C2.33 55.64 2.66 58.28 3 61 C4.98 61 6.96 61 9 61 C9.33 58.36 9.66 55.72 10 53 C12.31 52.67 14.62 52.34 17 52 C16.67 52.99 16.34 53.98 16 55 C15.01 55 14.02 55 13 55 C12.67 57.97 12.34 60.94 12 64 C8.04 64 4.08 64 0 64 C-1.4783226 61.04335481 -1.06032783 58.25770263 -1 55 C-3.87450983 54.74951364 -3.87450983 54.74951364 -7 55 C-8.02019573 55.9793879 -9.02149805 56.97895449 -10 58 C-12.375 58.5 -12.375 58.5 -15 58 C-18.02682378 55.64580372 -19.77123743 54.20100347 -20.5 50.375 C-20 48 -20 48 -18.4375 46.5625 C-17.7259375 45.7890625 -17.7259375 45.7890625 -17 45 C-17.23283149 41.85078091 -17.23283149 41.85078091 -18 39 C-21.96 38.505 -21.96 38.505 -26 38 C-26 34.04 -26 30.08 -26 26 C-23.03 25.67 -20.06 25.34 -17 25 C-16.74951364 22.12549017 -16.74951364 22.12549017 -17 19 C-17.9793879 17.97980427 -18.97895449 16.97850195 -20 16 C-20.5 13.625 -20.5 13.625 -20 11 C-17.64580372 7.97317622 -16.20100347 6.22876257 -12.375 5.5 C-10 6 -10 6 -8.5625 7.5 C-6.97647182 9.34734519 -6.97647182 9.34734519 -3.8125 9.1875 C-2.884375 9.125625 -1.95625 9.06375 -1 9 C-1.020625 7.88625 -1.04125 6.7725 -1.0625 5.625 C-1 2 -1 2 0 0 Z " fill="#EEAF1C" transform="translate(26,0)"/>
<path d="M0 0 C8.8515625 -0.7734375 8.8515625 -0.7734375 13.0625 2.0625 C15 5 15 5 15.32788086 8.36914062 C16.1424283 12.76941288 17.4244729 14.04812302 20.69140625 17.03125 C21.63564453 17.92457031 22.57988281 18.81789063 23.55273438 19.73828125 C25.0581308 21.12541935 26.56917877 22.50608136 28.08276367 23.88427734 C29.54987495 25.23042173 30.99595438 26.59937455 32.44140625 27.96875 C33.31482666 28.76732422 34.18824707 29.56589844 35.08813477 30.38867188 C37.57925335 33.7911753 37.51074156 35.87513067 37 40 C35 42 35 42 31.68945312 42.40991211 C27.13964028 41.9044108 26.01806677 40.77651956 22.96875 37.44140625 C22.07542969 36.49845703 21.18210937 35.55550781 20.26171875 34.58398438 C19.33921915 33.57858735 18.4186604 32.57140623 17.5 31.5625 C15.69466339 29.58681858 13.87095443 27.63597118 12.03125 25.69140625 C11.23267578 24.81685791 10.43410156 23.94230957 9.61132812 23.04125977 C6.38542424 20.51958976 4.01947392 20.39117054 0 20 C-2.9375 18.0625 -2.9375 18.0625 -5 15 C-5.40271849 11.62336035 -5.29553817 8.38227021 -5 5 C-0.59885603 5.50298788 1.71195019 7.08772731 5 10 C4.175 9.0925 3.35 8.185 2.5 7.25 C-0.03294997 4.46375503 0 4.12741739 0 0 Z M5 3 C5.66 3.99 6.32 4.98 7 6 C7.125 9.1875 7.125 9.1875 7 12 C1.375 12.25 1.375 12.25 -2 10 C-1.72965366 12.43717258 -1.72965366 12.43717258 -1 15 C1.8710774 17.25379707 1.8710774 17.25379707 5.36645508 17.33178711 C9.77353185 18.14225335 11.10922846 19.45331313 14.13671875 22.69140625 C15.04357422 23.63564453 15.95042969 24.57988281 16.88476562 25.55273438 C17.82034003 26.55474978 18.75457209 27.5580201 19.6875 28.5625 C21.53348592 30.53452853 23.39329196 32.49029391 25.26171875 34.44140625 C26.48314575 35.75153687 26.48314575 35.75153687 27.72924805 37.08813477 C30.0152418 39.42937824 30.0152418 39.42937824 34 39 C33.53207791 34.38885898 31.96424178 32.55076742 28.59765625 29.453125 C27.70755859 28.6075 26.81746094 27.761875 25.90039062 26.890625 C24.01833843 25.13939681 22.13035813 23.39451665 20.23632812 21.65625 C15.35140943 16.99385472 11.95400002 13.72500429 11.37670898 6.80371094 C11.13267296 4.58211814 11.13267296 4.58211814 8 3 C7.01 3 6.02 3 5 3 Z " fill="#EFAD1B" transform="translate(27,22)"/>
<path d="M0 0 C4.87986993 2.2656539 7.66705454 5.15465173 10 10 C10.31215015 13.36316618 10.23947378 16.63406292 10 20 C9.01 20 8.02 20 7 20 C6.98582031 19.41992188 6.97164062 18.83984375 6.95703125 18.2421875 C6.58452025 12.1410614 5.38435075 9.27741536 1 5 C-2.72466849 3.13766575 -6.94495313 3.42869171 -11 4 C-14.12578143 5.6720747 -16.39281175 7.7856235 -18 11 C-18.51512617 15.09157355 -18.94367269 19.23589546 -16.953125 22.95703125 C-13.66666684 26.9297792 -11.33675457 28.06632454 -6.375 28.5625 C-5.55773437 28.64628906 -4.74046875 28.73007812 -3.8984375 28.81640625 C-2.95871094 28.90728516 -2.95871094 28.90728516 -2 29 C-2 29.99 -2 30.98 -2 32 C-6.95618861 32.35261421 -10.82917054 32.5637327 -15.375 30.375 C-19.19646741 26.91748186 -21.67175079 24.43842269 -22.3828125 19.15625 C-22.56096164 14.35809977 -22.41347955 10.89057134 -20.375 6.5 C-14.13633057 -0.06702045 -8.87259444 -1.19438771 0 0 Z " fill="#EEAD1D" transform="translate(38,16)"/>
</svg>
