<?xml version="1.0" encoding="UTF-8"?>
<svg version="1.1" xmlns="http://www.w3.org/2000/svg" width="64" height="64">
<path d="M0 0 C3.62535141 1.647887 6.20557709 3.41115419 8 7 C8.61399908 11.40733585 8.57645546 14.89512703 6.5 18.875 C4.87198563 22.26669661 4.93338507 23.70406135 5.125 27.375 C5.29916934 34.52561899 2.63449083 38.17072241 -2.11328125 43.26953125 C-4.03932236 45.22294062 -5.99439572 47.12876623 -8 49 C-6.700625 48.979375 -5.40125 48.95875 -4.0625 48.9375 C-2.70834367 48.91600546 -1.35243917 48.92851801 0 49 C1 50 1 50 1.0625 53.0625 C1.041875 54.031875 1.02125 55.00125 1 56 C-11.53602415 62.08985153 -22.56222942 65.68079737 -36.25 62 C-43.00689227 60.28110911 -48.98714679 59.60490968 -56 60 C-56 53.4 -56 46.8 -56 40 C-52.04 40 -48.08 40 -44 40 C-44.639375 39.195625 -45.27875 38.39125 -45.9375 37.5625 C-48.89611063 33.09826189 -49.57559294 28.11162124 -48.60546875 22.8671875 C-48.14273975 21.22266863 -47.5810815 19.60651945 -47 18 C-46.01 18 -45.02 18 -44 18 C-44.11859375 18.7734375 -44.2371875 19.546875 -44.359375 20.34375 C-45.26620537 27.67093937 -45.0064524 31.75464774 -41 38 C-40.67 38.33 -40.34 38.66 -40 39 C-36.53158095 38.99241046 -33.07485512 38.92258046 -29.609375 38.78515625 C-24.28610492 38.68314236 -20.75693654 39.58998706 -16 42 C-15.95745644 43.99954746 -15.95919217 46.00041636 -16 48 C-18.04698414 50.04698414 -22.30411241 49.70045693 -25 50 C-21.37 50.33 -17.74 50.66 -14 51 C-13.34 49.68 -12.68 48.36 -12 47 C-9.72309436 44.61065458 -7.38164426 42.33608125 -4.98828125 40.06640625 C-1.60666772 36.79358458 0.79966213 34.42008146 1.1953125 29.640625 C1.17210937 28.85171875 1.14890625 28.0628125 1.125 27.25 C1.10695312 26.45078125 1.08890625 25.6515625 1.0703125 24.828125 C1.04710937 24.22484375 1.02390625 23.6215625 1 23 C-0.794375 23.12375 -0.794375 23.12375 -2.625 23.25 C-7.09394016 23.25 -9.5990619 21.98618956 -13 19 C-13.495 17.02 -13.495 17.02 -14 15 C-16.31 16.65 -18.62 18.3 -21 20 C-23.24400681 18.91955228 -25.22369394 17.83844327 -27.25 16.375 C-31.12356186 14.43821907 -33.68409936 14.6519435 -38 15 C-38.99 15.66 -39.98 16.32 -41 17 C-41.99 17 -42.98 17 -44 17 C-43.75 15.125 -43.75 15.125 -43 13 C-38.60174373 10.21181968 -34.0364831 10.35352605 -29 11 C-26.07609404 12.08118709 -23.69937196 13.40037217 -21 15 C-20.071875 14.2575 -20.071875 14.2575 -19.125 13.5 C-17 12 -17 12 -15 12 C-14.67 10.02 -14.34 8.04 -14 6 C-13.01 6 -12.02 6 -11 6 C-11.0825 7.216875 -11.165 8.43375 -11.25 9.6875 C-11.23302184 12.87373393 -10.96727062 14.06284042 -9.4375 17 C-7.06468053 19.29945774 -7.06468053 19.29945774 -3.5 19.5 C0.09882168 18.98588262 1.59433857 18.68323775 4 16 C5.40101724 12.54415748 5.09896928 11.24506679 3.6875 7.75 C2.28605821 4.9228455 2.28605821 4.9228455 0 4 C-3.83588262 3.82951633 -7.2651627 4.12121475 -11 5 C-11 4.01 -11 3.02 -11 2 C-7.34387956 -0.33991708 -4.26792624 -0.37437949 0 0 Z M-45 44 C-45 47.96 -45 51.92 -45 56 C-42.31578673 56.8454215 -39.62843232 57.67647233 -36.9375 58.5 C-36.18533203 58.73847656 -35.43316406 58.97695313 -34.65820312 59.22265625 C-26.19528993 61.7871754 -19.8787584 61.01678671 -11.625 58.1875 C-10.39716797 57.79594727 -10.39716797 57.79594727 -9.14453125 57.39648438 C-7.97857422 57.00493164 -7.97857422 57.00493164 -6.7890625 56.60546875 C-6.08475098 56.36981201 -5.38043945 56.13415527 -4.65478516 55.89135742 C-2.63505108 55.04724621 -2.63505108 55.04724621 -2 52 C-3.52102323 52.14383922 -5.04180897 52.29019014 -6.5625 52.4375 C-7.48289063 52.52515625 -8.40328125 52.6128125 -9.3515625 52.703125 C-12.14508095 52.97797589 -12.14508095 52.97797589 -15.4375 53.6875 C-20.48318996 54.13010438 -25.08004624 53.07651791 -30 52 C-30 50.35 -30 48.7 -30 47 C-26.37 46.67 -22.74 46.34 -19 46 C-19.33 45.01 -19.66 44.02 -20 43 C-28.05681839 40.31439387 -36.91094413 42.31915722 -45 44 Z M-54 43 C-54 47.62 -54 52.24 -54 57 C-52.02 57 -50.04 57 -48 57 C-48 52.38 -48 47.76 -48 43 C-49.98 43 -51.96 43 -54 43 Z " fill="#EEAE1C" transform="translate(56,0)"/>
<path d="M0 0 C1.8125 0.125 1.8125 0.125 4 1 C5.75 4.0625 5.75 4.0625 7 7 C7.39832031 6.50886719 7.79664062 6.01773437 8.20703125 5.51171875 C10.5121755 3.56816575 11.7196719 3.683464 14.6875 3.8125 C15.89986328 3.85310547 15.89986328 3.85310547 17.13671875 3.89453125 C17.75160156 3.92933594 18.36648437 3.96414062 19 4 C19.495 5.485 19.495 5.485 20 7 C17.03 7 14.06 7 11 7 C10.34 8.65 9.68 10.3 9 12 C7.68 12 6.36 12 5 12 C4.01 10.02 3.02 8.04 2 6 C1.443125 6.680625 0.88625 7.36125 0.3125 8.0625 C-0.450625 8.701875 -1.21375 9.34125 -2 10 C-4.1875 9.75 -4.1875 9.75 -7 9 C-10.00168629 8.89387978 -12.99739366 8.94112537 -16 9 C-16 8.34 -16 7.68 -16 7 C-13.69 7 -11.38 7 -9 7 C-8.67 5.68 -8.34 4.36 -8 3 C-6.68 3 -5.36 3 -4 3 C-4 3.66 -4 4.32 -4 5 C-3.34 5 -2.68 5 -2 5 C-1.34 3.35 -0.68 1.7 0 0 Z " fill="#EEAD1C" transform="translate(33,24)"/>
<path d="M0 0 C0.99 0 1.98 0 3 0 C3 0.99 3 1.98 3 3 C4.32 3 5.64 3 7 3 C7 3.99 7 4.98 7 6 C5.68 6 4.36 6 3 6 C3 7.32 3 8.64 3 10 C2.01 9.67 1.02 9.34 0 9 C0 8.01 0 7.02 0 6 C-0.99 6 -1.98 6 -3 6 C-3 5.01 -3 4.02 -3 3 C-2.01 3 -1.02 3 0 3 C0 2.01 0 1.02 0 0 Z " fill="#EEAD1B" transform="translate(51,7)"/>
</svg>
