<?xml version="1.0" encoding="UTF-8"?>
<svg version="1.1" xmlns="http://www.w3.org/2000/svg" width="64" height="64">
<path d="M0 0 C6.84162896 -0.65158371 6.84162896 -0.65158371 10 1.125 C11.51152489 3.95910917 11.4433302 5.8333557 11 9 C9 11.6875 9 11.6875 7 14 C7 14.99 7 15.98 7 17 C9.64 17 12.28 17 15 17 C14.95875 16.21625 14.9175 15.4325 14.875 14.625 C15 12 15 12 17 10 C20.5 9.75 20.5 9.75 24 10 C26 12 26 12 26.1875 15.5 C26 19 26 19 25 21 C25.721875 21.4125 26.44375 21.825 27.1875 22.25 C34.54187545 26.82605583 34.54187545 26.82605583 36 30.5625 C36 33 36 33 34.875 34.875 C33 36 33 36 30.5625 35.9375 C27.55859806 34.83851148 26.16148838 33.31055655 24 31 C23.34 31 22.68 31 22 31 C21.34 32.98 20.68 34.96 20 37 C20.804375 37.309375 21.60875 37.61875 22.4375 37.9375 C25 39 25 39 26 40 C25.6830145 45.38875353 24.5310254 48.88047037 21 53 C18.4375 54.0625 18.4375 54.0625 16 54 C14.34765625 52.49609375 14.34765625 52.49609375 13 51 C12.84144531 51.56589844 12.68289062 52.13179687 12.51953125 52.71484375 C11.81509358 54.9293467 11.09838253 56.95026252 10 59 C7.4375 60.0625 7.4375 60.0625 5 60 C4.34 59.67 3.68 59.34 3 59 C2.68014269 52.28299653 3.5206176 47.24273068 6 41 C6.99 41.33 7.98 41.66 9 42 C8.69147815 43.958964 8.3780582 45.91715713 8.0625 47.875 C7.88847656 48.96554688 7.71445312 50.05609375 7.53515625 51.1796875 C7 54 7 54 6 56 C6.66 56 7.32 56 8 56 C8.103125 54.865625 8.20625 53.73125 8.3125 52.5625 C8.90098613 47.92091924 9.85498231 43.18920121 12 39 C13.485 38.505 13.485 38.505 15 38 C15.95235605 36.00207384 15.95235605 36.00207384 16.5625 33.625 C17.45012686 30.54588761 18.18224782 28.72662828 20 26 C23.72301503 25.52269038 24.79191085 25.8612739 28 28 C27.34 27.566875 26.68 27.13375 26 26.6875 C20.83992167 23.78495594 16.12118129 21.97737528 10.1875 21.5625 C6.25023408 21.25023408 6.25023408 21.25023408 3.9375 18.9375 C3.628125 18.298125 3.31875 17.65875 3 17 C3.33 18.65 3.66 20.3 4 22 C6.64 22 9.28 22 12 22 C13.15957207 25.47871621 12.77456651 26.34219645 11.5625 29.6875 C11.27503906 30.49574219 10.98757812 31.30398437 10.69140625 32.13671875 C10.46324219 32.75160156 10.23507813 33.36648437 10 34 C9.01 33.67 8.02 33.34 7 33 C7.33 31.02 7.66 29.04 8 27 C6.9275 26.690625 5.855 26.38125 4.75 26.0625 C1.31349435 24.60268357 0.08584106 22.98095238 -1.5 19.625 C-2.89906085 15.94950114 -3.20213988 13.80677629 -2 10 C-2.0309375 8.205625 -2.0309375 8.205625 -2.0625 6.375 C-2 3 -2 3 0 0 Z M3 3 C2.34 3.66 1.68 4.32 1 5 C1.3185177 7.10820797 1.3185177 7.10820797 2 9 C4.47266765 8.65555119 4.47266765 8.65555119 7 8 C7.33 7.34 7.66 6.68 8 6 C7.34 5.01 6.68 4.02 6 3 C5.01 3 4.02 3 3 3 Z M20 13 C19.01 14.485 19.01 14.485 18 16 C19.98 16.99 19.98 16.99 22 18 C22 16.68 22 15.36 22 14 C21.34 13.67 20.68 13.34 20 13 Z M16 39 C16.45375 39.4125 16.9075 39.825 17.375 40.25 C19.05950374 42.06408095 19.99265971 43.75285627 21 46 C21.66 44.68 22.32 43.36 23 42 C19.74602492 39.74114676 19.74602492 39.74114676 16 39 Z M14 44 C14.33 44.99 14.66 45.98 15 47 C15.33 46.01 15.66 45.02 16 44 C15.34 44 14.68 44 14 44 Z M19 46 C20 48 20 48 20 48 Z M18 48 C17.67 48.66 17.34 49.32 17 50 C17.66 50 18.32 50 19 50 C18.67 49.34 18.34 48.68 18 48 Z " fill="#EEAE1C" transform="translate(16,0)"/>
<path d="M0 0 C0.99 0 1.98 0 3 0 C3.09038099 5.15171623 2.84681133 9.91913204 2 15 C0.68 15 -0.64 15 -2 15 C-1.85816304 13.24967156 -1.71136571 11.49974466 -1.5625 9.75 C-1.48128906 8.77546875 -1.40007813 7.8009375 -1.31640625 6.796875 C-1.04925416 4.43538247 -0.64628032 2.28098935 0 0 Z " fill="#EEAD1D" transform="translate(14,49)"/>
<path d="M0 0 C0.99 0.33 1.98 0.66 3 1 C1.66786942 4.5865054 0.23083941 7.87682483 -2 11 C-2.99 11 -3.98 11 -5 11 C-4.46884894 6.48521602 -2.63379708 3.65333143 0 0 Z " fill="#EFAA1A" transform="translate(39,53)"/>
<path d="M0 0 C0.99 0 1.98 0 3 0 C2.125 4.75 2.125 4.75 1 7 C0.01 7 -0.98 7 -2 7 C-1.125 1.125 -1.125 1.125 0 0 Z " fill="#EDAD1C" transform="translate(30,57)"/>
<path d="M0 0 C0.99 0 1.98 0 3 0 C3 0.99 3 1.98 3 3 C1.68 3 0.36 3 -1 3 C-0.67 2.01 -0.34 1.02 0 0 Z " fill="#F1A81B" transform="translate(23,36)"/>
</svg>
